<?xml version="1.0" encoding="UTF-8"?><svg id="b" xmlns="http://www.w3.org/2000/svg" viewBox="0 0 350.2 424.8"><defs><style>.d{fill:#a12242;}</style></defs><g id="c"><path class="d" d="m315.9,424.8H34.3c-18.9,0-34.3-15.4-34.3-34.3V34.3c0-1.1,0-4.8,1.3-9.3,2.5-8.7,8.7-15,8.7-15C17.1,3,25.3,1.1,28.4.5L119.9,0c1.7,0,4.1.1,6.8,1,1.7.6,3.2,1.3,4.3,2,18.3,12.4,36.6,24.9,54.9,37.3,2.9,2.1,7.2,4.6,12.9,6.3,8.6,2.6,16,2.1,20.3,1.5h100.7c2.1,0,12.6,0,21.1,8.1,6.9,6.6,8.4,14.6,8.7,17.2.2,105.7.4,211.3.6,317,0,1.9.5,15.7-10.5,25.8-9.8,9-21.6,8.6-23.8,8.5Z"/></g></svg>