<?xml version="1.0" encoding="UTF-8"?><svg id="b" xmlns="http://www.w3.org/2000/svg" xmlns:xlink="http://www.w3.org/1999/xlink" viewBox="0 0 307.7 317.7"><defs><style>.o{fill:url(#j);}.p{fill:url(#m);}.q,.r{fill:#fff;}.s{fill:url(#h);}.t{fill:url(#i);}.u{fill:url(#l);}.v{fill:#691b32;}.w{opacity:.7;}.w,.x{fill:#a12242;}.y{fill:url(#f);}.z{fill:url(#g);}.aa{fill:url(#n);}.r{opacity:.3;}.ab{filter:url(#d);}.ac{fill:url(#k);}</style><filter id="d" filterUnits="userSpaceOnUse"><feOffset dx="7" dy="10"/><feGaussianBlur result="e" stdDeviation="5"/><feFlood flood-color="#000" flood-opacity=".2"/><feComposite in2="e" operator="in"/><feComposite in="SourceGraphic"/></filter><linearGradient id="f" x1="1764.3" y1="7502.3" x2="1764.3" y2="7570.9" gradientTransform="translate(-787.6 4404.9) scale(.6 -.6)" gradientUnits="userSpaceOnUse"><stop offset="0" stop-color="#691b32"/><stop offset=".3" stop-color="#691b31"/><stop offset=".5" stop-color="#691b32"/><stop offset="1" stop-color="#3d131f"/></linearGradient><linearGradient id="g" x1="1693.7" y1="7521.1" x2="1911.1" y2="7521.2" gradientTransform="translate(-787.6 4404.9) scale(.6 -.6)" gradientUnits="userSpaceOnUse"><stop offset="0" stop-color="#be315e"/><stop offset="1" stop-color="#781619"/></linearGradient><linearGradient id="h" x1="1509.6" y1="7548.5" x2="1586.7" y2="7471.3" gradientTransform="translate(-787.6 4404.9) scale(.6 -.6)" gradientUnits="userSpaceOnUse"><stop offset="0" stop-color="#691b32"/><stop offset=".3" stop-color="#691b31"/><stop offset=".5" stop-color="#691b32"/><stop offset="1" stop-color="#3d131f"/></linearGradient><linearGradient id="i" x1="1524" y1="7496.3" x2="1619.7" y2="7496.3" gradientTransform="translate(-787.6 4404.9) scale(.6 -.6)" gradientUnits="userSpaceOnUse"><stop offset="0" stop-color="#a02243"/><stop offset="1" stop-color="#691c32"/></linearGradient><linearGradient id="j" x1="1631.4" y1="7619.4" x2="1631.3" y2="7693.4" xlink:href="#g"/><linearGradient id="k" x1="1631.4" y1="7478.3" x2="1631.4" y2="7583.1" xlink:href="#f"/><linearGradient id="l" x1="1631.8" y1="7478.4" x2="1631.8" y2="7531.4" xlink:href="#g"/><linearGradient id="m" x1="1592.9" y1="7599.3" x2="1664.8" y2="7599.3" xlink:href="#i"/><linearGradient id="n" x1="1631.7" y1="7673.9" x2="1631.7" y2="7645" gradientTransform="translate(-787.6 4404.9) scale(.6 -.6)" gradientUnits="userSpaceOnUse"><stop offset="0" stop-color="#691b32"/><stop offset="1" stop-color="#a12242"/></linearGradient></defs><g id="c"><g class="ab"><path class="q" d="m74.5,317.7c-20.6,0-39.5-7.3-53.1-20.7C7.6,283.6,0,264.8,0,244.3s.5-8,1.6-12.8c1-4.6,5.1-7.9,9.8-7.9s0,0,0,0c4.7,0,8.8,3.4,9.7,8.1,5,25.3,26,41.7,53.3,41.7s48.6-17.4,53.8-43.4c.9-4.6,5-8,9.7-8.1,0,0,0,0,.1,0,4.7,0,8.7,3.3,9.8,7.8,1.1,4.8,1.6,9,1.6,12.8,0,20.6-7.6,39.6-21.5,53.6-13.9,14-32.9,21.6-53.5,21.6Z"/><g><g><path class="r" d="m139.4,242.5c0,37.1-27.8,65.2-64.9,65.2s-64.5-26.4-64.5-63.5S74.5,111,74.5,111c0,0,64.9,94.5,64.9,131.5Z"/><path class="w" d="m74.5,283.3c-32.3,0-57.2-20-63.1-49.7-.9,3.9-1.3,7.5-1.3,10.7,0,37.1,27.4,63.5,64.5,63.5s64.9-28.1,64.9-65.2-.5-6.7-1.3-10.7c-6,30-31.3,51.4-63.6,51.4Z"/></g><path class="w" d="m78.3,125.7s32.1,62.1,39.3,86.2c7.2,24.1,3.8,50.2-13.7,56.7-17.5,6.5-20.6-16.5-19.7-41.5,1-24.9,1.7-60.2-6-101.4Z"/></g></g><g><polygon class="y" points="151.8 65.6 295.2 65.6 295.2 105.4 151.8 105.4 151.8 65.6"/><polygon class="z" points="307.7 83.7 307.7 105.4 151.8 105.4 151.8 83.7 307.7 83.7"/><path class="s" d="m53.7,129.9v-1.1c0-17.4,7.1-33.2,18.6-44.7,11.5-11.5,27.3-18.6,44.7-18.6h23.7v39.8h-23.7c-6.4,0-12.3,2.6-16.6,6.9-4.3,4.3-6.9,10.1-6.9,16.6v1.1c0,2.2-1.8,3.9-3.9,3.9h-31.9c-2.2,0-3.9-1.8-3.9-3.9Z"/><path class="t" d="m140.7,83.7v21.6h-23.7c-6.4,0-12.3,2.6-16.6,6.9-4.3,4.3-6.9,10.1-6.9,16.6v1.1c0,2.2-1.8,3.9-3.9,3.9h-17.6c0-17.3,7-51.3,57-50.1h11.7Z"/><g><path class="o" d="m147.3,0h0c-5.4,0-9.8,2.9-9.8,6.5v43.3c0,3.6,4.4,6.5,9.8,6.5h0c5.4,0,9.8-2.9,9.8-6.5V6.5c0-3.6-4.4-6.5-9.8-6.5Z"/><path class="x" d="m147.1,56.2h.2c5.4,0,9.8-2.9,9.8-6.5V6.5c0-1-.3-2-1-2.8h-.2c-5.4,0-9.8,2.9-9.8,6.5v43.3c0,1,.3,2,1,2.8Z"/></g><path class="ac" d="m174.2,58.3c2,2,3.9,4.3,5.4,6.7.2.4.3.8.3,1.2v38.4c0,.5-.2,1-.5,1.4-14.9,17.5-49.3,17.5-64.3,0-.4-.4-.5-.9-.5-1.4v-38.4c0-.4.1-.8.3-1.2,1.5-2.4,3.4-4.7,5.4-6.7h53.8Z"/><path class="u" d="m177,108.6c-14.9,13.8-43.5,14-58.7.5v-20.9s.6-5.8,7.4-2.6c6.8,3.2,17.1,8.2,30.8,2.8,13.7-5.4,17.3-4.6,17.3-4.6,0,0,3.4,0,3.2,3v21.9Z"/><path class="p" d="m119.7,59s7.5-7.7,9.1-15.3c0,0,1.3-2.9,3.8-3.1h29.5c2.4.2,3.8,3.1,3.8,3.1,1.5,7.6,9.1,15.3,9.1,15.3h-55.2Z"/><path class="v" d="m117.1,7c6.1,0,10.1,5.9,15,5.4,3.1-.3,9.7-3.9,9.7-3.9h0c9.2-5.2,14.4,4.6,20.4,3.9,3.1-.3,9.7-3.9,9.7-3.9h0c7.4-4.3,16.9,1,16.9,9.8s-9.5,14-16.9,9.7h0c0,0-6.6-3.5-9.7-3.8-6.1-.7-11.1,9.2-20.4,3.9-.6-.3-6.8-3.6-9.7-3.9-4.9-.5-8.9,5.4-15,5.4s-11.2-5-11.2-11.2,5-11.2,11.2-11.2Z"/><path class="aa" d="m117.1,7c6.1,0,10.1,5.9,15,5.4,3.1-.3,9.7-3.9,9.7-3.9h0c9.2-5.2,14.4,4.6,20.4,3.9,3.1-.3,9.7-3.9,9.7-3.9h0c7.4-4.3,16.9,1,16.9,9.8h0c-3.1,7.5-15.2,4.2-18.1.8-3.2-3.8-10.7-4.9-16.4,1.4-5.6,6.3-14.2,3.4-17.6-1.7-3.3-5.2-7.7-4.4-12.1-2-4.4,2.4-7.8,5.5-14.1,3.2-3-1.1-4.1-2.9-4.4-4.4,1.2-4.8,5.6-8.4,10.9-8.4Z"/><g><polygon class="q" points="114.7 95.6 114.7 65.6 111.9 65.8 114.7 95.6"/><polygon class="q" points="180 95.6 179.9 65.6 183.5 65.6 180 95.6"/></g></g></g></svg>