<?xml version="1.0" encoding="UTF-8"?><svg id="b" xmlns="http://www.w3.org/2000/svg" viewBox="0 0 913.7 149.2"><defs><style>.e{fill:#a02243;}.f{fill:#691b32;}.g{fill:#be315e;}.h{fill:#3d131f;}</style></defs><g id="c"><g id="d"><g><g><g><g><polygon class="e" points="285 142.4 298.8 120.9 260.1 136 285 142.4"/><path class="h" d="m285.2,143.1l15.1-23.4-42.3,16.4,27.1,7Zm12.1-21l-12.6,19.6-22.6-5.8,35.3-13.7Z"/></g><g><polygon class="e" points="81.7 141.4 95.5 119.9 56.8 135 81.7 141.4"/><path class="h" d="m81.9,142.1l15.1-23.4-42.3,16.4,27.1,7Zm12.1-21l-12.6,19.6-22.6-5.8,35.3-13.7Z"/></g><path class="e" d="m4.7,42L24.7,7.6C27.7,2.4,31.9.1,36.2.7l347.8,1.8,10,110.2,2.2,30.5-47.6-.3-7.7-6.7c-2.7-2.3-6.3-3.8-9.3-3.8h-42.3c-3-.1-4.9,1.4-4.9,3.7v6.5s-138.9-.7-138.9-.7l-7.8-6.9c-2.7-2.3-6.3-3.8-9.3-3.8h-42.3c-3-.1-4.9,1.4-4.9,3.7v6.7s-33.1-.2-33.1-.2c-.5,0-1,0-1.5,0h0c-4.4-.3-9-3.7-12.6-9.9L6.3,82.9c-6.9-12-7.6-30.4-1.6-40.8Z"/><path class="h" d="m396.9,143.8l-2.2-31.2L384.6,1.9h-.6S36.2,0,36.2,0c-4.7-.6-9,1.9-12,7.2L4.2,41.7c-6.2,10.6-5.4,29.2,1.6,41.4l27.8,48.5c3.6,6.2,8.2,9.9,13.1,10.2.5,0,1.1,0,1.6,0l33.7.2v-7.3c0-.8.2-1.5.7-2,.7-.7,2-1.1,3.5-1.1h42.3c2.8.1,6.3,1.6,8.9,3.8l8,7h.2s139.5.7,139.5.7v-7.2c0-.8.2-1.5.7-2,.7-.7,2-1.1,3.5-1.1h42.3c2.8.1,6.3,1.6,8.9,3.8l7.9,6.9h.2s48.3.3,48.3.3ZM383.5,3.1l10,109.6,2.1,29.9-46.7-.2-7.5-6.6c-2.8-2.4-6.5-4-9.7-4h-42.3c-1.9-.1-3.4.4-4.3,1.4-.8.8-1.2,1.8-1.1,2.9v5.9s-138.1-.7-138.1-.7l-7.6-6.7c-2.8-2.4-6.5-4-9.7-4h-42.3c-1.9-.1-3.4.4-4.3,1.4-.8.8-1.2,1.8-1.1,2.9v6s-32.5-.2-32.5-.2c-.5,0-.9,0-1.4,0-4.4-.3-8.8-3.8-12.1-9.6L6.8,82.5C0,70.6-.7,52.6,5.2,42.3L25.2,7.9c2.8-4.8,6.7-7.2,10.9-6.6l347.4,1.8Z"/><path class="h" d="m5,80.3l-3.2-7-1-10,349.2.4.4,8.6,2.4,6.4.6,1.7,37.1-6.5,3.5,38.8,2.2,30.5-47.6-.3-7.7-6.7c-2.7-2.3-6.3-3.8-9.3-3.8h-42.3c-3-.1-4.9,1.4-4.9,3.7v6.5s-138.9-.7-138.9-.7l-7.8-6.9c-2.7-2.3-6.3-3.8-9.3-3.8h-42.3c-3-.1-4.9,1.4-4.9,3.7v6.7s-33.1-.2-33.1-.2c-.5,0-1,0-1.5,0h0c-4.4-.3-9-3.7-12.6-9.9L6.3,82.9c-.5-.8-.9-1.6-1.3-2.5Z"/><g><g><path class="h" d="m316.9,139.3c2.8,4.9,9.8,9,15.4,9,5.7,0,8-4,5.2-8.9-2.8-4.9-9.8-9-15.4-9-5.7,0-8,4-5.2,8.9Z"/><path class="f" d="m316.3,135.1l17.5.3.9,1.5h-3.8c1,.7,1.8,1.6,2.3,2.5.8,1.4.9,2.8.3,3.9-.3.5-.7.8-1.1,1.1s-1.5.6-2.4.6c-3.1,0-6.8-2.1-8.4-4.9s-.9-2.5-.5-3.5h-4c0,0-.9-1.6-.9-1.6Zm6.3,1.9c-.3.6-.2,1.4.3,2.4,1.3,2.2,4.5,4.1,7,4.1,1.1,0,1.9-.3,2.2-.9.3-.6.2-1.4-.3-2.4-.8-1.4-2.4-2.6-4.1-3.4h-4.9c-.1,0-.2,0-.3.2Z"/></g><g><path class="h" d="m294.2,139c2.8,4.9,9.8,9,15.4,9,5.7,0,8-4,5.2-8.9-2.8-4.9-9.8-9-15.4-9-5.7,0-8,4-5.2,8.9Z"/><path class="f" d="m293.6,134.8l17.5.3.9,1.5h-3.8c1,.7,1.8,1.6,2.3,2.5.8,1.4.9,2.8.3,3.9-.3.5-.7.8-1.1,1.1s-1.5.6-2.4.6c-3.1,0-6.8-2.1-8.4-4.9s-.9-2.5-.5-3.5h-4c0,0-.9-1.6-.9-1.6Zm6.3,1.9c-.3.6-.2,1.4.3,2.4,1.3,2.2,4.5,4.1,7,4.1,1.1,0,1.9-.3,2.2-.9.3-.6.2-1.4-.3-2.4-.8-1.4-2.4-2.6-4.1-3.4h-4.9c-.1,0-.2,0-.3.2Z"/></g></g><g><g><path class="h" d="m115,137.8c2.8,4.9,9.8,9,15.4,9,5.7,0,8-4,5.2-8.9s-9.8-9-15.4-9c-5.7,0-8,4-5.2,8.9Z"/><path class="f" d="m114.3,133.5l17.5.3.9,1.5h-3.8c1,.7,1.8,1.6,2.3,2.5.8,1.4.9,2.8.3,3.9-.3.5-.7.8-1.1,1.1s-1.5.6-2.4.6c-3.1,0-6.8-2.1-8.4-4.9s-.9-2.5-.5-3.5h-4c0,0-.9-1.6-.9-1.6Zm6.3,1.9c-.3.6-.2,1.4.3,2.4,1.3,2.2,4.5,4.1,7,4.1,1.1,0,1.9-.3,2.2-.9.3-.6.2-1.4-.3-2.4-.8-1.4-2.4-2.6-4.1-3.4h-4.9c-.1,0-.2,0-.3.2Z"/></g><g><path class="h" d="m92.3,137.5c2.8,4.9,9.8,9,15.4,9,5.7,0,8-4,5.2-8.9s-9.8-9-15.4-9c-5.7,0-8,4-5.2,8.9Z"/><path class="f" d="m91.7,133.2l17.5.3.9,1.5h-3.8c1,.7,1.8,1.6,2.3,2.5.8,1.4.9,2.8.3,3.9-.3.5-.7.8-1.1,1.1s-1.5.6-2.4.6c-3.1,0-6.8-2.1-8.4-4.9s-.9-2.5-.5-3.5h-4c0,0-.9-1.6-.9-1.6Zm6.3,1.9c-.3.6-.2,1.4.3,2.4,1.3,2.2,4.5,4.1,7,4.1,1.1,0,1.9-.3,2.2-.9.3-.6.2-1.4-.3-2.4-.8-1.4-2.4-2.6-4.1-3.4h-4.9c-.1,0-.2,0-.3.2Z"/></g></g><g><path class="e" d="m407,136.2l20-34.4c6-10.4,5.3-28.8-1.6-40.8l-27.8-48.5c-6.9-12-17.5-13.4-23.6-3l-20,34.4c-6,10.4-5.3,28.8,1.6,40.8l27.8,48.5c6.9,12,17.5,13.4,23.6,3Z"/><path class="h" d="m401.9,142.4c2.1-1.2,4-3.2,5.6-5.9l20-34.4c6.2-10.6,5.4-29.2-1.6-41.4l-27.8-48.5c-3.7-6.5-8.8-10.3-13.8-10.3-4.2,0-8,2.6-10.8,7.3l-20,34.4c-6.2,10.6-5.4,29.2,1.6,41.4l27.8,48.5c3.7,6.5,8.8,10.3,13.8,10.3,1.8,0,3.6-.5,5.2-1.4ZM379.7,4.3c1.4-.8,3-1.3,4.6-1.2,4.6,0,9.3,3.5,12.8,9.7l27.8,48.5c6.8,11.9,7.5,29.9,1.6,40.2l-20,34.4c-2.5,4.3-6,6.7-9.7,6.7-4.6,0-9.3-3.5-12.8-9.7l-27.8-48.5c-6.8-11.9-7.5-29.9-1.6-40.2l20-34.4c1.4-2.5,3.2-4.3,5.1-5.5Z"/></g><polygon class="g" points="22.8 29 8.8 53.1 342.1 52.6 356.1 28.4 22.8 29"/><polygon class="g" points="33.3 10.8 27.2 21.2 360.4 20.6 366.6 10.3 33.3 10.8"/><g><path class="e" d="m356.2,126.2c.6-.3,1.1-.8,1.4-1.4.9-1.6.7-3.8-.7-6l-16.7-29.1c-2.4-4.2-7.8-7.6-12-7.6h-10.6c-1.9,0-3.4.7-4.2,2-.9,1.6-.7,3.8.7,6l16.7,29.1c2.4,4.2,7.8,7.6,12,7.6h10.6c1.1,0,2.1-.2,2.8-.6Zm-40.9-42.6c.6-.4,1.4-.5,2.3-.5h10.6c3.9,0,8.9,3.2,11.2,7.2l16.7,29.1c1.1,2,1.4,3.8.7,5.1-.6,1-1.8,1.5-3.4,1.5h-10.6c-3.9,0-8.9-3.2-11.2-7.2l-16.7-29.1c-1.1-2-1.4-3.8-.7-5.1.2-.4.6-.8,1-1Z"/><path class="e" d="m351.9,116.1l-2.6-4.6h-4.3c-.5,0-1,.2-1.2.6-.3.4-.2,1,.2,1.6l.2.4c.6,1.1,2,1.9,3.1,1.9h4.7Zm-3-4l1.9,3.4h-3.6c-.9,0-2-.8-2.5-1.6l-.2-.4c-.2-.4-.3-.8-.2-1,.1-.2.4-.3.7-.3h4Z"/><path class="e" d="m321.5,88.4c.6-1,1.8-1.6,3.3-1.6h1.7c3.2,0,7.3,2.6,9.2,5.8l4.6,8c1,1.8,1.2,3.5.5,4.7-.3.4-.6.8-1.1,1.1s-1.3.5-2.2.5h-1.7c-3.2,0-7.3-2.6-9.2-5.8l-4.6-8c-1-1.8-1.2-3.5-.5-4.7Zm1.9-.4c-.1,0-.3,0-.4.1-.3.2-.6.4-.7.7-.5.9-.3,2.3.5,3.7l4.6,8c1.7,2.9,5.4,5.3,8.3,5.3h1.7c1.2,0,2-.4,2.4-1.1.1-.2.2-.4.2-.7-.2,0-.4,0-.6,0h-1.7c-3.2,0-7.2-2.6-9-5.7l-4.6-8c-.5-.8-.7-1.7-.8-2.4Zm11.4,5.1c-1.7-2.9-5.4-5.3-8.3-5.3h-1.7c-.3,0-.5,0-.7,0,0,.7.3,1.5.7,2.3l4.6,8c1.7,3,5.5,5.4,8.5,5.4h1.7c.2,0,.4,0,.6,0,0-.7-.3-1.5-.8-2.4l-4.6-8Z"/></g><g><path class="e" d="m69.9,125.4c.6-.3,1.1-.8,1.4-1.4.9-1.6.7-3.8-.7-6l-16.7-29.1c-2.4-4.2-7.8-7.6-12-7.6h-10.6c-1.9,0-3.4.7-4.2,2-.9,1.6-.7,3.8.7,6l16.7,29.1c2.4,4.2,7.8,7.6,12,7.6h10.6c1.1,0,2.1-.2,2.8-.6Zm-40.9-42.6c.6-.4,1.4-.5,2.3-.5h10.6c3.9,0,8.9,3.2,11.2,7.2l16.7,29.1c1.1,2,1.4,3.8.7,5.1-.6,1-1.8,1.5-3.4,1.5h-10.6c-3.9,0-8.9-3.2-11.2-7.2l-16.7-29.1c-1.1-2-1.4-3.8-.7-5.1.2-.4.6-.8,1-1Z"/><path class="e" d="m65.6,115.3l-2.6-4.6h-4.3c-.5,0-1,.2-1.2.6-.3.4-.2,1,.2,1.6l.2.4c.6,1.1,2,1.9,3.1,1.9h4.7Zm-3-4l1.9,3.4h-3.6c-.9,0-2-.8-2.5-1.6l-.2-.4c-.2-.4-.3-.8-.2-1,.1-.2.4-.3.7-.3h4Z"/><path class="e" d="m35.2,87.6c.6-1,1.8-1.6,3.3-1.6h1.7c3.2,0,7.3,2.6,9.2,5.8l4.6,8c1,1.8,1.2,3.5.5,4.7-.3.4-.6.8-1.1,1.1s-1.3.5-2.2.5h-1.7c-3.2,0-7.3-2.6-9.2-5.8l-4.6-8c-1-1.8-1.2-3.5-.5-4.7Zm1.9-.4c-.1,0-.3,0-.4.1-.3.2-.6.4-.7.7-.5.9-.3,2.3.5,3.7l4.6,8c1.7,2.9,5.4,5.3,8.3,5.3h1.7c1.2,0,2-.4,2.4-1.1.1-.2.2-.4.2-.7-.2,0-.4,0-.6,0h-1.7c-3.2,0-7.2-2.6-9-5.7l-4.6-8c-.5-.8-.7-1.7-.8-2.4Zm11.4,5.1c-1.7-2.9-5.4-5.3-8.3-5.3h-1.7c-.3,0-.5,0-.7,0,0,.7.3,1.5.7,2.3l4.6,8c1.7,3,5.5,5.4,8.5,5.4h1.7c.2,0,.4,0,.6,0,0-.7-.3-1.5-.8-2.4l-4.6-8Z"/></g><path class="e" d="m285.3,88.4c.6-1,1.8-1.6,3.3-1.6h1.7c3.2,0,7.3,2.6,9.2,5.8l4.6,8c1,1.8,1.2,3.5.5,4.7-.3.5-.6.8-1.1,1.1s-1.3.5-2.2.5h-1.7c-3.2,0-7.3-2.6-9.2-5.8l-4.6-8c-1-1.8-1.2-3.5-.5-4.7Zm1.9-.4c-.1,0-.3,0-.4.1-.3.2-.6.4-.7.7-.5.9-.3,2.3.5,3.7l4.6,8c1.7,2.9,5.4,5.3,8.3,5.3h1.7c1.2,0,2-.4,2.4-1.1.1-.2.2-.4.2-.7-.2,0-.4,0-.6,0h-1.7c-3.2,0-7.2-2.6-9-5.7l-4.6-8c-.5-.8-.7-1.7-.8-2.4Zm11.4,5.1c-1.7-2.9-5.4-5.3-8.3-5.3h-1.7c-.3,0-.5,0-.7,0,0,.7.3,1.5.7,2.3l4.6,8c1.7,3,5.5,5.4,8.5,5.4h1.7c.2,0,.4,0,.6,0,0-.7-.3-1.5-.8-2.4l-4.6-8Z"/><path class="e" d="m265.9,88c.6-1,1.8-1.6,3.3-1.6h1.7c3.2,0,7.3,2.6,9.2,5.8l4.6,8c1,1.8,1.2,3.5.5,4.7-.3.5-.6.8-1.1,1.1s-1.3.5-2.2.5h-1.7c-3.2,0-7.3-2.6-9.2-5.8l-4.6-8c-1-1.8-1.2-3.5-.5-4.7Zm1.9-.4c-.1,0-.3,0-.4.1-.3.2-.6.4-.7.7-.5.9-.3,2.3.5,3.7l4.6,8c1.7,2.9,5.4,5.3,8.3,5.3h1.7c1.2,0,2-.4,2.4-1.1.1-.2.2-.4.2-.7-.2,0-.4,0-.6,0h-1.7c-3.2,0-7.2-2.6-9-5.7l-4.6-8c-.5-.8-.7-1.7-.8-2.4Zm11.4,5.1c-1.7-2.9-5.4-5.3-8.3-5.3h-1.7c-.3,0-.5,0-.7,0,0,.7.3,1.5.7,2.3l4.6,8c1.7,3,5.5,5.4,8.5,5.4h1.7c.2,0,.4,0,.6,0,0-.7-.3-1.5-.8-2.4l-4.6-8Z"/><path class="e" d="m246.6,87.7c.6-1,1.8-1.6,3.3-1.6h1.7c3.2,0,7.3,2.6,9.2,5.8l4.6,8c1,1.8,1.2,3.5.5,4.7-.3.5-.6.8-1.1,1.1s-1.3.5-2.2.5h-1.7c-3.2,0-7.3-2.6-9.2-5.8l-4.6-8c-1-1.8-1.2-3.5-.5-4.7Zm1.9-.4c-.1,0-.3,0-.4.1-.3.2-.6.4-.7.7-.5.9-.3,2.3.5,3.7l4.6,8c1.7,2.9,5.4,5.3,8.3,5.3h1.7c1.2,0,2-.4,2.4-1.1.1-.2.2-.4.2-.7-.2,0-.4,0-.6,0h-1.7c-3.2,0-7.2-2.6-9-5.7l-4.6-8c-.5-.8-.7-1.7-.8-2.4Zm11.4,5.1c-1.7-2.9-5.4-5.3-8.3-5.3h-1.7c-.3,0-.5,0-.7,0,0,.7.3,1.5.7,2.3l4.6,8c1.7,3,5.5,5.4,8.5,5.4h1.7c.2,0,.4,0,.6,0,0-.7-.3-1.5-.8-2.4l-4.6-8Z"/><path class="e" d="m227.3,87.5c.6-1,1.8-1.6,3.3-1.6h1.7c3.2,0,7.3,2.6,9.2,5.8l4.6,8c1,1.8,1.2,3.5.5,4.7-.3.4-.6.8-1.1,1.1s-1.3.5-2.2.5h-1.7c-3.2,0-7.3-2.6-9.2-5.8l-4.6-8c-1-1.8-1.2-3.5-.5-4.7Zm1.9-.4c-.1,0-.3,0-.4.1-.3.2-.6.4-.7.7-.5.9-.3,2.3.5,3.7l4.6,8c1.7,2.9,5.4,5.3,8.3,5.3h1.7c1.2,0,2-.4,2.4-1.1.1-.2.2-.4.2-.7-.2,0-.4,0-.6,0h-1.7c-3.2,0-7.2-2.6-9-5.7l-4.6-8c-.5-.8-.7-1.7-.8-2.4Zm11.4,5.1c-1.7-2.9-5.4-5.3-8.3-5.3h-1.7c-.3,0-.5,0-.7,0,0,.7.3,1.5.7,2.3l4.6,8c1.7,3,5.5,5.4,8.5,5.4h1.7c.2,0,.4,0,.6,0,0-.7-.3-1.5-.8-2.4l-4.6-8Z"/><path class="e" d="m208.1,87.4c.6-1,1.8-1.6,3.3-1.6h1.7c3.2,0,7.3,2.6,9.2,5.8l4.6,8c1,1.8,1.2,3.5.5,4.7-.3.5-.6.8-1.1,1.1s-1.3.5-2.2.5h-1.7c-3.2,0-7.3-2.6-9.2-5.8l-4.6-8c-1-1.8-1.2-3.5-.5-4.7Zm1.9-.4c-.1,0-.3,0-.4.1-.3.2-.6.4-.7.7-.5.9-.3,2.3.5,3.7l4.6,8c1.7,2.9,5.4,5.3,8.3,5.3h1.7c1.2,0,2-.4,2.4-1.1.1-.2.2-.4.2-.7-.2,0-.4,0-.6,0h-1.7c-3.2,0-7.2-2.6-9-5.7l-4.6-8c-.5-.8-.7-1.7-.8-2.4Zm11.4,5.1c-1.7-2.9-5.4-5.3-8.3-5.3h-1.7c-.3,0-.5,0-.7,0,0,.7.3,1.5.7,2.3l4.6,8c1.7,3,5.5,5.4,8.5,5.4h1.7c.2,0,.4,0,.6,0,0-.7-.3-1.5-.8-2.4l-4.6-8Z"/><path class="e" d="m189,87.4c.6-1,1.8-1.6,3.3-1.6h1.7c3.2,0,7.3,2.6,9.2,5.8l4.6,8c1,1.8,1.2,3.5.5,4.7-.3.4-.6.8-1.1,1.1s-1.3.5-2.2.5h-1.7c-3.2,0-7.3-2.6-9.2-5.8l-4.6-8c-1-1.8-1.2-3.5-.5-4.7Zm1.9-.4c-.1,0-.3,0-.4.1-.3.2-.6.4-.7.7-.5.9-.3,2.3.5,3.7l4.6,8c1.7,2.9,5.4,5.3,8.3,5.3h1.7c1.2,0,2-.4,2.4-1.1.1-.2.2-.4.2-.7-.2,0-.4,0-.6,0h-1.7c-3.2,0-7.2-2.6-9-5.7l-4.6-8c-.5-.8-.7-1.7-.8-2.4Zm11.4,5.1c-1.7-2.9-5.4-5.3-8.3-5.3h-1.7c-.3,0-.5,0-.7,0,0,.7.3,1.5.7,2.3l4.6,8c1.7,3,5.5,5.4,8.5,5.4h1.7c.2,0,.4,0,.6,0,0-.7-.3-1.5-.8-2.4l-4.6-8Z"/><path class="e" d="m169.6,87.1c.6-1,1.8-1.6,3.3-1.6h1.7c3.2,0,7.3,2.6,9.2,5.8l4.6,8c1,1.8,1.2,3.5.5,4.7-.3.4-.6.8-1.1,1.1s-1.3.5-2.2.5h-1.7c-3.2,0-7.3-2.6-9.2-5.8l-4.6-8c-1-1.8-1.2-3.5-.5-4.7Zm1.9-.4c-.1,0-.3,0-.4.1-.3.2-.6.4-.7.7-.5.9-.3,2.3.5,3.7l4.6,8c1.7,2.9,5.4,5.3,8.3,5.3h1.7c1.2,0,2-.4,2.4-1.1.1-.2.2-.4.2-.7-.2,0-.4,0-.6,0h-1.7c-3.2,0-7.2-2.6-9-5.7l-4.6-8c-.5-.8-.7-1.7-.8-2.4Zm11.4,5.1c-1.7-2.9-5.4-5.3-8.3-5.3h-1.7c-.3,0-.5,0-.7,0,0,.7.3,1.5.7,2.3l4.6,8c1.7,3,5.5,5.4,8.5,5.4h1.7c.2,0,.4,0,.6,0,0-.7-.3-1.5-.8-2.4l-4.6-8Z"/><path class="e" d="m150.4,87c.6-1,1.8-1.6,3.3-1.6h1.7c3.2,0,7.3,2.6,9.2,5.8l4.6,8c1,1.8,1.2,3.5.5,4.7-.3.5-.6.8-1.1,1.1s-1.3.5-2.2.5h-1.7c-3.2,0-7.3-2.6-9.2-5.8l-4.6-8c-1-1.8-1.2-3.5-.5-4.7Zm1.9-.4c-.1,0-.3,0-.4.1-.3.2-.6.4-.7.7-.5.9-.3,2.3.5,3.7l4.6,8c1.7,2.9,5.4,5.3,8.3,5.3h1.7c1.2,0,2-.4,2.4-1.1.1-.2.2-.4.2-.7-.2,0-.4,0-.6,0h-1.7c-3.2,0-7.2-2.6-9-5.7l-4.6-8c-.5-.8-.7-1.7-.8-2.4Zm11.4,5.1c-1.7-2.9-5.4-5.3-8.3-5.3h-1.7c-.3,0-.5,0-.7,0,0,.7.3,1.5.7,2.3l4.6,8c1.7,3,5.5,5.4,8.5,5.4h1.7c.2,0,.4,0,.6,0,0-.7-.3-1.5-.8-2.4l-4.6-8Z"/><path class="e" d="m131.2,86.9c.6-1,1.8-1.6,3.3-1.6h1.7c3.2,0,7.3,2.6,9.2,5.8l4.6,8c1,1.8,1.2,3.5.5,4.7-.3.4-.6.8-1.1,1.1s-1.3.5-2.2.5h-1.7c-3.2,0-7.3-2.6-9.2-5.8l-4.6-8c-1-1.8-1.2-3.5-.5-4.7Zm1.9-.4c-.1,0-.3,0-.4.1-.3.2-.6.4-.7.7-.5.9-.3,2.3.5,3.7l4.6,8c1.7,2.9,5.4,5.3,8.3,5.3h1.7c1.2,0,2-.4,2.4-1.1.1-.2.2-.4.2-.7-.2,0-.4,0-.6,0h-1.7c-3.2,0-7.2-2.6-9-5.7l-4.6-8c-.5-.8-.7-1.7-.8-2.4Zm11.4,5.1c-1.7-2.9-5.4-5.3-8.3-5.3h-1.7c-.3,0-.5,0-.7,0,0,.7.3,1.5.7,2.3l4.6,8c1.7,3,5.5,5.4,8.5,5.4h1.7c.2,0,.4,0,.6,0,0-.7-.3-1.5-.8-2.4l-4.6-8Z"/><path class="e" d="m112.1,87c.6-1,1.8-1.6,3.3-1.6h1.7c3.2,0,7.3,2.6,9.2,5.8l4.6,8c1,1.8,1.2,3.5.5,4.7-.3.4-.6.8-1.1,1.1s-1.3.5-2.2.5h-1.7c-3.2,0-7.3-2.6-9.2-5.8l-4.6-8c-1-1.8-1.2-3.5-.5-4.7Zm1.9-.4c-.1,0-.3,0-.4.1-.3.2-.6.4-.7.7-.5.9-.3,2.3.5,3.7l4.6,8c1.7,2.9,5.4,5.3,8.3,5.3h1.7c1.2,0,2-.4,2.4-1.1.1-.2.2-.4.2-.7-.2,0-.4,0-.6,0h-1.7c-3.2,0-7.2-2.6-9-5.7l-4.6-8c-.5-.8-.7-1.7-.8-2.4Zm11.4,5.1c-1.7-2.9-5.4-5.3-8.3-5.3h-1.7c-.3,0-.5,0-.7,0,0,.7.3,1.5.7,2.3l4.6,8c1.7,3,5.5,5.4,8.5,5.4h1.7c.2,0,.4,0,.6,0,0-.7-.3-1.5-.8-2.4l-4.6-8Z"/><path class="e" d="m92.8,86.8c.6-1,1.8-1.6,3.3-1.6h1.7c3.2,0,7.3,2.6,9.2,5.8l4.6,8c1,1.8,1.2,3.5.5,4.7-.3.5-.6.8-1.1,1.1s-1.3.5-2.2.5h-1.7c-3.2,0-7.3-2.6-9.2-5.8l-4.6-8c-1-1.8-1.2-3.5-.5-4.7Zm1.9-.4c-.1,0-.3,0-.4.1-.3.2-.6.4-.7.7-.5.9-.3,2.3.5,3.7l4.6,8c1.7,2.9,5.4,5.3,8.3,5.3h1.7c1.2,0,2-.4,2.4-1.1.1-.2.2-.4.2-.7-.2,0-.4,0-.6,0h-1.7c-3.2,0-7.2-2.6-9-5.7l-4.6-8c-.5-.8-.7-1.7-.8-2.4Zm11.4,5.1c-1.7-2.9-5.4-5.3-8.3-5.3h-1.7c-.3,0-.5,0-.7,0,0,.7.3,1.5.7,2.3l4.6,8c1.7,3,5.5,5.4,8.5,5.4h1.7c.2,0,.4,0,.6,0,0-.7-.3-1.5-.8-2.4l-4.6-8Z"/><path class="e" d="m73.6,86.8c.6-1,1.8-1.6,3.3-1.6h1.7c3.2,0,7.3,2.6,9.2,5.8l4.6,8c1,1.8,1.2,3.5.5,4.7-.3.4-.6.8-1.1,1.1s-1.3.5-2.2.5h-1.7c-3.2,0-7.3-2.6-9.2-5.8l-4.6-8c-1-1.8-1.2-3.5-.5-4.7Zm1.9-.4c-.1,0-.3,0-.4.1-.3.2-.6.4-.7.7-.5.9-.3,2.3.5,3.7l4.6,8c1.7,2.9,5.4,5.3,8.3,5.3h1.7c1.2,0,2-.4,2.4-1.1.1-.2.2-.4.2-.7-.2,0-.4,0-.6,0h-1.7c-3.2,0-7.2-2.6-9-5.7l-4.6-8c-.5-.8-.7-1.7-.8-2.4Zm11.4,5.1c-1.7-2.9-5.4-5.3-8.3-5.3h-1.7c-.3,0-.5,0-.7,0,0,.7.3,1.5.7,2.3l4.6,8c1.7,3,5.5,5.4,8.5,5.4h1.7c.2,0,.4,0,.6,0,0-.7-.3-1.5-.8-2.4l-4.6-8Z"/><path class="e" d="m271.5,143.1h.7s-4.9-8.6-4.9-8.6c-.6-1.1-1.8-1.8-3.1-1.8l-106.7-1.3c-.6,0-1.2.3-1.6.9-.3.6-.3,1.2,0,1.8l4.9,8.5h.7s-5-8.8-5-8.8c-.2-.4-.2-.8,0-1.2.2-.4.6-.6,1-.6l106.7,1.3c1,0,2,.6,2.5,1.5l4.8,8.3Z"/><g><path class="h" d="m335.8,39.4c1.3-.8,2.4-1.8,3.1-2.9l11.5-19.8c.7-1.2.8-2.3.2-3.2-.6-1.1-2-1.7-3.8-1.7h-6.4c-3.2,0-6.8,1.9-8.2,4.3l-11.5,19.8c-.7,1.2-.8,2.3-.2,3.2.6,1.1,2,1.7,3.8,1.7h6.4c1.7,0,3.6-.5,5.2-1.4Zm0-25.1c1.4-.8,3.1-1.3,4.6-1.3h6.4c1.3,0,2.3.4,2.7,1.1.4.7,0,1.5-.2,2l-11.5,19.8c-1.2,2.1-4.4,3.7-7.2,3.7h-6.4c-1.3,0-2.3-.4-2.7-1.1-.4-.7-.1-1.5.2-2l11.5-19.8c.5-.9,1.5-1.8,2.6-2.4Z"/><path class="h" d="m338.8,30.3c.4-.2.7-.5.9-.9h0s3.3-5.6,3.3-5.6c.2-.4.3-.9,0-1.2-.2-.4-.7-.6-1.3-.6h-1c-.9,0-2,.5-2.4,1.3l-3.3,5.6c-.2.4-.3.9,0,1.2s.7.6,1.3.6h1c.5,0,1-.1,1.5-.4Zm-.1-1.5c-.2.3-.8.7-1.3.7h-1c-.2,0-.3,0-.3,0l3.3-5.6c.2-.3.8-.7,1.3-.7h1c.2,0,.3,0,.3,0l-3.3,5.6Z"/></g><g><path class="h" d="m41.6,38.5c1.3-.8,2.4-1.8,3.1-2.9l11.5-19.8c.7-1.2.8-2.3.2-3.2s-2-1.7-3.8-1.7h-6.4c-3.2,0-6.8,1.9-8.2,4.3l-11.5,19.8c-.7,1.2-.8,2.3-.2,3.2.6,1.1,2,1.7,3.8,1.7h6.4c1.7,0,3.6-.5,5.2-1.4Zm2-3.5c-1.2,2.1-4.4,3.7-7.2,3.7h-6.4c-1.3,0-2.3-.4-2.7-1.1-.4-.7-.1-1.5.2-2l11.5-19.8c1.2-2.1,4.4-3.7,7.2-3.7h6.4c1.3,0,2.3.4,2.7,1.1s0,1.5-.2,2l-11.5,19.8Z"/><path class="h" d="m44.6,29.4c.4-.2.7-.5.9-.9h0s3.3-5.6,3.3-5.6c.2-.4.3-.9,0-1.2s-.7-.6-1.3-.6h-1c-.9,0-1.9.5-2.4,1.3l-3.3,5.6c-.2.4-.3.9,0,1.2s.7.6,1.3.6h1c.5,0,1-.2,1.5-.4Zm-.1-1.5c-.2.3-.8.7-1.3.7h-1c-.2,0-.3,0-.3,0l3.3-5.6c.2-.3.8-.7,1.3-.7h1c.2,0,.3,0,.3,0l-3.3,5.6Z"/></g><path class="f" d="m380.1,137.8c.2-.1.3-.2.4-.4.3-.5.2-1.1-.2-1.7l-2.2-3.8c-.7-1.1-2.1-2-3.2-2.1h-8.2c-.6,0-1,.2-1.2.6-.3.5-.2,1.1.2,1.7l2.2,3.8c.7,1.1,2.1,2,3.2,2.1h8.2c.3,0,.6,0,.8-.2Zm-13.8-7.3c.2,0,.3-.1.5-.1h8.2c.9,0,2.2.8,2.7,1.8l2.2,3.8c.3.4.3.9.2,1.1-.2.3-.5.3-.7.3h-8.2s0,.3,0,.3v-.3c-.9,0-2.2-.8-2.7-1.7l-2.2-3.8c-.3-.4-.3-.9-.2-1.1,0,0,.1-.1.2-.2Z"/><path class="f" d="m53.6,139c.2-.1.3-.2.4-.4.3-.5.2-1.1-.2-1.7l-2.2-3.8c-.7-1.1-2.1-2-3.2-2.1h-8.2c-.6,0-1,.2-1.2.6-.3.5-.2,1.1.2,1.7l2.2,3.8c.7,1.1,2.1,2,3.2,2.1h8.2c.3,0,.6,0,.8-.2Zm-13.8-7.3c.2,0,.4-.1.5-.1h8.2c.9,0,2.2.8,2.7,1.8l2.2,3.8c.3.4.3.9.2,1.1-.1.3-.5.3-.7.3h-8.2c-.9,0-2.2-.8-2.7-1.8l-2.2-3.8c-.3-.4-.3-.9-.2-1.1,0,0,.1-.1.2-.2Z"/></g><g><path class="e" d="m361.4,43.4l20-34.4c3-5.2,7.2-7.5,11.5-6.9l14.1-.2,10,110.2,2.2,30.5h-14.3c-.5.1-1,.1-1.5,0h0c-4.4-.3-9-3.7-12.6-9.9l-27.8-48.5c-6.9-12-7.6-30.4-1.6-40.8Z"/><path class="h" d="m419.8,143.1l-2.2-31.2L407.5,1.2h-.6s-14.1.2-14.1.2c-4.7-.6-9,1.9-12,7.2l-20,34.4c-6.2,10.6-5.4,29.2,1.6,41.4l27.8,48.5c3.6,6.2,8.2,9.9,13.1,10.2.5,0,1.1,0,1.6,0h14.9ZM406.4,2.4l10,109.6,2.1,29.9h-13.7c-.5.1-.9.1-1.4,0-4.4-.3-8.8-3.8-12.1-9.6l-27.8-48.5c-6.8-11.9-7.5-29.9-1.6-40.2l20-34.4c2.8-4.8,6.7-7.2,10.9-6.6l13.6-.2Z"/><path class="h" d="m361.7,81.7l-3.2-7-1.1-11.5h15.5c0,0,.4,8.5.4,8.5l2.4,6.4.6,1.7,37.1-6.5,3.5,38.8,2.2,30.5h-14.3c-.5.1-1,.1-1.5,0h0c-4.4-.3-9-3.7-12.6-9.9l-27.8-48.5c-.5-.8-.9-1.6-1.3-2.5Z"/><g><path class="e" d="m429.9,135.6l20-34.4c6-10.4,5.3-28.8-1.6-40.8l-27.8-48.5c-6.9-12-17.5-13.4-23.6-3l-20,34.4c-6,10.4-5.3,28.8,1.6,40.8l27.8,48.5c6.9,12,17.5,13.4,23.6,3Z"/><path class="h" d="m424.8,141.8c2.1-1.2,4-3.2,5.6-5.9l20-34.4c6.2-10.6,5.4-29.2-1.6-41.4l-27.8-48.5c-3.7-6.5-8.8-10.3-13.8-10.3-4.2,0-8,2.6-10.8,7.3l-20,34.4c-6.2,10.6-5.4,29.2,1.6,41.4l27.8,48.5c3.7,6.5,8.8,10.3,13.8,10.3,1.8,0,3.6-.5,5.2-1.4ZM402.6,3.7c1.4-.8,3-1.3,4.6-1.2,4.6,0,9.3,3.5,12.8,9.7l27.8,48.5c6.8,11.9,7.5,29.9,1.6,40.2l-20,34.4c-2.5,4.3-6,6.7-9.7,6.7-4.6,0-9.3-3.5-12.8-9.7l-27.8-48.5c-6.8-11.9-7.5-29.9-1.6-40.2l20-34.4c1.4-2.5,3.2-4.3,5.1-5.5Z"/></g><polygon class="h" points="398.6 7.3 382.6 7.4 388.7 2.1 402.6 2.4 405.6 2 401.1 3.8 398.6 7.3"/></g></g><g><g><polygon class="e" points="664.3 143.3 678.2 121.8 639.5 136.9 664.3 143.3"/><path class="h" d="m664.6,144l15.1-23.4-42.3,16.4,27.1,7Zm12.1-21l-12.6,19.6-22.6-5.8,35.3-13.7Z"/></g><g><polygon class="e" points="461.1 142.3 474.9 120.8 436.2 135.9 461.1 142.3"/><path class="h" d="m461.3,143l15.1-23.4-42.3,16.4,27.1,7Zm12.1-21l-12.6,19.6-22.6-5.8,35.3-13.7Z"/></g><path class="e" d="m384.1,42.9l20-34.4c3-5.2,7.2-7.5,11.5-6.9l347.8,1.8,10,110.2,2.2,30.5-47.6-.3-7.7-6.7c-2.7-2.3-6.3-3.8-9.3-3.8h-42.3c-3-.1-4.9,1.4-4.9,3.7v6.5s-138.9-.7-138.9-.7l-7.8-6.9c-2.7-2.3-6.3-3.8-9.3-3.8h-42.3c-3-.1-4.9,1.4-4.9,3.7v6.7s-33.1-.2-33.1-.2c-.5,0-1,0-1.5,0h0c-4.4-.3-9-3.7-12.6-9.9l-27.8-48.5c-6.9-12-7.6-30.4-1.6-40.8Z"/><path class="h" d="m776.3,144.7l-2.2-31.2-10.1-110.7h-.6S415.6,1,415.6,1c-4.7-.6-9,1.9-12,7.2l-20,34.4c-6.2,10.6-5.4,29.2,1.6,41.4l27.8,48.5c3.6,6.2,8.2,9.9,13.1,10.2.5,0,1.1,0,1.6,0l33.7.2v-7.3c0-.8.2-1.5.7-2,.7-.7,2-1.1,3.5-1.1h42.3c2.8.1,6.3,1.6,8.9,3.8l8,7h.2s139.5.7,139.5.7v-7.2c0-.8.2-1.5.7-2,.7-.7,2-1.1,3.5-1.1h42.3c2.8.1,6.3,1.6,8.9,3.8l7.9,6.9h.2s48.3.3,48.3.3Zm-13.4-140.7l10,109.6,2.1,29.9-46.7-.2-7.5-6.6c-2.8-2.4-6.5-4-9.7-4h-42.3c-1.9-.1-3.4.4-4.3,1.4-.8.8-1.2,1.8-1.1,2.9v5.9s-138.1-.7-138.1-.7l-7.6-6.7c-2.8-2.4-6.5-4-9.7-4h-42.3c-1.9-.1-3.4.4-4.3,1.4-.8.8-1.2,1.8-1.1,2.9v6s-32.5-.2-32.5-.2c-.5,0-.9,0-1.4,0-4.4-.3-8.8-3.8-12.1-9.6l-27.8-48.5c-6.8-11.9-7.5-29.9-1.6-40.2l20-34.4c2.8-4.8,6.7-7.2,10.9-6.6l347.4,1.8Z"/><path class="h" d="m384.4,81.2l-3.2-7-1-10,349.2.4.4,8.6,2.4,6.4.6,1.7,37.1-6.5,3.5,38.8,2.2,30.5-47.6-.3-7.7-6.7c-2.7-2.3-6.3-3.8-9.3-3.8h-42.3c-3-.1-4.9,1.4-4.9,3.7v6.5s-138.9-.7-138.9-.7l-7.8-6.9c-2.7-2.3-6.3-3.8-9.3-3.8h-42.3c-3-.1-4.9,1.4-4.9,3.7v6.7s-33.1-.2-33.1-.2c-.5,0-1,0-1.5,0h0c-4.4-.3-9-3.7-12.6-9.9l-27.8-48.5c-.5-.8-.9-1.6-1.3-2.5Z"/><g><g><path class="h" d="m696.3,140.2c2.8,4.9,9.8,9,15.4,9,5.7,0,8-4,5.2-8.9-2.8-4.9-9.8-9-15.4-9-5.7,0-8,4-5.2,8.9Z"/><path class="f" d="m695.7,136l17.5.3.9,1.5h-3.8c1,.7,1.8,1.6,2.3,2.5.8,1.4.9,2.8.3,3.9-.3.5-.7.8-1.1,1.1s-1.5.6-2.4.6c-3.1,0-6.8-2.1-8.4-4.9-.7-1.3-.9-2.5-.5-3.5h-4c0,0-.9-1.6-.9-1.6Zm6.3,1.9c-.3.6-.2,1.4.3,2.4,1.3,2.2,4.5,4.1,7,4.1,1.1,0,1.9-.3,2.2-.9.3-.6.2-1.4-.3-2.4-.8-1.4-2.4-2.6-4.1-3.4h-4.9c-.1,0-.2,0-.3.2Z"/></g><g><path class="h" d="m673.6,139.9c2.8,4.9,9.8,9,15.4,9,5.7,0,8-4,5.2-8.9-2.8-4.9-9.8-9-15.4-9-5.7,0-8,4-5.2,8.9Z"/><path class="f" d="m673,135.7l17.5.3.9,1.5h-3.8c1,.7,1.8,1.6,2.3,2.5.8,1.4.9,2.8.3,3.9-.3.5-.7.8-1.1,1.1s-1.5.6-2.4.6c-3.1,0-6.8-2.1-8.4-4.9s-.9-2.5-.5-3.5h-4c0,0-.9-1.6-.9-1.6Zm6.3,1.9c-.3.6-.2,1.4.3,2.4,1.3,2.2,4.5,4.1,7,4.1,1.1,0,1.9-.3,2.2-.9.3-.6.2-1.4-.3-2.4-.8-1.4-2.4-2.6-4.1-3.4h-4.9c-.1,0-.2,0-.3.2Z"/></g></g><g><g><path class="h" d="m494.3,138.7c2.8,4.9,9.8,9,15.4,9,5.7,0,8-4,5.2-8.9-2.8-4.9-9.8-9-15.4-9-5.7,0-8,4-5.2,8.9Z"/><path class="f" d="m493.7,134.4l17.5.3.9,1.5h-3.8c1,.7,1.8,1.6,2.3,2.5.8,1.4.9,2.8.3,3.9-.3.5-.7.8-1.1,1.1s-1.5.6-2.4.6c-3.1,0-6.8-2.1-8.4-4.9-.7-1.3-.9-2.5-.5-3.5h-4c0,0-.9-1.6-.9-1.6Zm6.3,1.9c-.3.6-.2,1.4.3,2.4,1.3,2.2,4.5,4.1,7,4.1,1.1,0,1.9-.3,2.2-.9.3-.6.2-1.4-.3-2.4-.8-1.4-2.4-2.6-4.1-3.4h-4.9c-.1,0-.2,0-.3.2Z"/></g><g><path class="h" d="m471.7,138.4c2.8,4.9,9.8,9,15.4,9,5.7,0,8-4,5.2-8.9-2.8-4.9-9.8-9-15.4-9-5.7,0-8,4-5.2,8.9Z"/><path class="f" d="m471.1,134.1l17.5.3.9,1.5h-3.8c1,.7,1.8,1.6,2.3,2.5.8,1.4.9,2.8.3,3.9-.3.5-.7.8-1.1,1.1s-1.5.6-2.4.6c-3.1,0-6.8-2.1-8.4-4.9-.7-1.3-.9-2.5-.5-3.5h-4c0,0-.9-1.6-.9-1.6Zm6.3,1.9c-.3.6-.2,1.4.3,2.4,1.3,2.2,4.5,4.1,7,4.1,1.1,0,1.9-.3,2.2-.9.3-.6.2-1.4-.3-2.4-.8-1.4-2.4-2.6-4.1-3.4h-4.9c-.1,0-.2,0-.3.2Z"/></g></g><polygon class="g" points="402.2 29.9 388.2 54 721.5 53.5 735.5 29.3 402.2 29.9"/><polygon class="g" points="412.7 11.7 406.6 22.1 739.8 21.5 746 11.2 412.7 11.7"/><g><path class="e" d="m735.6,127.1c.6-.3,1.1-.8,1.4-1.4.9-1.5.7-3.8-.7-6l-16.7-29.1c-2.4-4.2-7.8-7.6-12-7.6h-10.6c-1.9,0-3.4.7-4.2,2-.9,1.6-.7,3.8.7,6l16.7,29.1c2.4,4.2,7.8,7.6,12,7.6h10.6c1.1,0,2.1-.2,2.8-.6Zm-40.9-42.6c.6-.4,1.4-.5,2.3-.5h10.6c3.9,0,8.9,3.2,11.2,7.2l16.7,29.1c1.1,2,1.4,3.8.7,5.1-.6,1-1.8,1.5-3.4,1.5h-10.6c-3.9,0-8.9-3.2-11.2-7.2l-16.7-29.1c-1.1-2-1.4-3.8-.7-5.1.2-.4.6-.8,1-1Z"/><path class="e" d="m731.3,117.1l-2.6-4.6h-4.3c-.5,0-1,.2-1.2.6-.3.4-.2,1,.2,1.6l.2.4c.6,1.1,2,1.9,3.1,1.9h4.7Zm-3-4l1.9,3.4h-3.6c-.9,0-2-.8-2.5-1.6l-.2-.4c-.2-.4-.3-.8-.2-1,.1-.2.4-.3.7-.3h4Z"/><path class="e" d="m700.8,89.3c.6-1,1.8-1.6,3.3-1.6h1.7c3.2,0,7.3,2.6,9.2,5.8l4.6,8c1,1.8,1.2,3.5.5,4.7-.3.4-.6.8-1.1,1.1s-1.3.5-2.2.5h-1.7c-3.2,0-7.3-2.6-9.2-5.8l-4.6-8c-1-1.8-1.2-3.5-.5-4.7Zm1.9-.4c-.1,0-.3,0-.4.1-.3.2-.6.4-.7.7-.5.9-.3,2.3.5,3.7l4.6,8c1.7,2.9,5.4,5.3,8.3,5.3h1.7c1.2,0,2-.4,2.4-1.1.1-.2.2-.4.2-.7-.2,0-.4,0-.6,0h-1.7c-3.2,0-7.2-2.6-9-5.7l-4.6-8c-.5-.8-.7-1.7-.8-2.4Zm11.4,5.1c-1.7-2.9-5.4-5.3-8.3-5.3h-1.7c-.3,0-.5,0-.7,0,0,.7.3,1.5.7,2.3l4.6,8c1.7,3,5.5,5.4,8.5,5.4h1.7c.2,0,.4,0,.6,0,0-.7-.3-1.5-.8-2.4l-4.6-8Z"/></g><g><path class="e" d="m449.3,126.3c.6-.3,1.1-.8,1.4-1.4.9-1.6.7-3.8-.7-6l-16.7-29.1c-2.4-4.2-7.8-7.6-12-7.6h-10.6c-1.9,0-3.4.7-4.2,2-.9,1.6-.7,3.8.7,6l16.7,29.1c2.4,4.2,7.8,7.6,12,7.6h10.6c1.1,0,2.1-.2,2.8-.6Zm-40.9-42.6c.6-.4,1.4-.5,2.3-.5h10.6c3.9,0,8.9,3.2,11.2,7.2l16.7,29.1c1.1,2,1.4,3.8.7,5.1-.6,1-1.8,1.5-3.4,1.5h-10.6c-3.9,0-8.9-3.2-11.2-7.2l-16.7-29.1c-1.1-2-1.4-3.8-.7-5.1.2-.4.6-.8,1-1Z"/><path class="e" d="m445,116.2l-2.6-4.6h-4.3c-.5,0-1,.2-1.2.6-.3.4-.2,1,.2,1.6l.2.4c.6,1.1,2,1.9,3.1,1.9h4.7Zm-3-4l1.9,3.4h-3.6c-.9,0-2-.8-2.5-1.6l-.2-.4c-.2-.4-.3-.8-.2-1,.1-.2.4-.3.7-.3h4Z"/><path class="e" d="m414.6,88.5c.6-1,1.8-1.6,3.3-1.6h1.7c3.2,0,7.3,2.6,9.2,5.8l4.6,8c1,1.8,1.2,3.5.5,4.7-.3.4-.6.8-1.1,1.1s-1.3.5-2.2.5h-1.7c-3.2,0-7.3-2.6-9.2-5.8l-4.6-8c-1-1.8-1.2-3.5-.5-4.7Zm1.9-.4c-.1,0-.3,0-.4.1-.3.2-.6.4-.7.7-.5.9-.3,2.3.5,3.7l4.6,8c1.7,2.9,5.4,5.3,8.3,5.3h1.7c1.2,0,2-.4,2.4-1.1.1-.2.2-.4.2-.7-.2,0-.4,0-.6,0h-1.7c-3.2,0-7.2-2.6-9-5.7l-4.6-8c-.5-.8-.7-1.7-.8-2.4Zm11.4,5.1c-1.7-2.9-5.4-5.3-8.3-5.3h-1.7c-.3,0-.5,0-.7,0,0,.7.3,1.5.7,2.3l4.6,8c1.7,3,5.5,5.4,8.5,5.4h1.7c.2,0,.4,0,.6,0,0-.7-.3-1.5-.8-2.4l-4.6-8Z"/></g><path class="e" d="m650.9,144h.7s-4.9-8.6-4.9-8.6c-.6-1.1-1.8-1.8-3.1-1.8l-106.7-1.3c-.6,0-1.2.3-1.6.9-.3.6-.3,1.2,0,1.8l4.9,8.5h.7s-5-8.8-5-8.8c-.2-.4-.2-.8,0-1.2.2-.4.6-.6,1-.6l106.7,1.3c1,0,2,.6,2.5,1.5l4.8,8.3Z"/><path class="f" d="m755.7,138.8c.2-.1.3-.2.4-.4.3-.5.2-1.1-.2-1.7l-2.2-3.8c-.7-1.1-2.1-2-3.2-2.1h-8.2c-.6,0-1,.2-1.2.6-.3.5-.2,1.1.2,1.7l2.2,3.8c.7,1.1,2.1,2,3.2,2.1h8.2c.3,0,.6,0,.8-.2Zm-13.8-7.3c.2,0,.3-.1.5-.1h8.2c.9,0,2.2.8,2.7,1.8l2.2,3.8c.3.4.3.9.2,1.1-.2.3-.5.3-.7.3h-8.2s0,.3,0,.3v-.3c-.9,0-2.2-.8-2.7-1.7l-2.2-3.8c-.3-.4-.3-.9-.2-1.1,0,0,.1-.1.2-.2Z"/><path class="f" d="m433,139.9c.2-.1.3-.2.4-.4.3-.5.2-1.1-.2-1.7l-2.2-3.8c-.7-1.1-2.1-2-3.2-2.1h-8.2c-.6,0-1,.2-1.2.6-.3.5-.2,1.1.2,1.7l2.2,3.8c.7,1.1,2.1,2,3.2,2.1h8.2c.3,0,.6,0,.8-.2Zm-13.8-7.3c.2,0,.4-.1.5-.1h8.2c.9,0,2.2.8,2.7,1.8l2.2,3.8c.3.4.3.9.2,1.1-.1.3-.5.3-.7.3h-8.2c-.9,0-2.2-.8-2.7-1.8l-2.2-3.8c-.3-.4-.3-.9-.2-1.1,0,0,.1-.1.2-.2Z"/><g><path class="e" d="m732.9,44.5l20-34.4c2.7-4.7,6.6-7.3,10.8-7.3,0,0,32.2.8,93.1,30.9,61,30.1,59.2,46.6,52.4,60.2-6.8,13.7-18.1,30.6-18.1,30.6,0,0-13.3,15.9-42.5,18-24,1.8-71.3,2.2-72.5,2.2-5,0-10.1-3.8-13.8-10.3l-27.8-48.5c-7-12.2-7.7-30.8-1.6-41.4Z"/><path class="h" d="m879.8,133.9c7.9-4.5,11.7-9,11.8-9.1.2-.2,11.4-17.2,18.2-30.7,2.5-5,4.7-11.1,2.3-18.3-4.3-12.7-21.7-26.3-55-42.7-60.4-29.8-93.1-31-93.4-31-4.4,0-8.5,2.7-11.3,7.6l-20,34.4c-6.2,10.8-5.5,29.6,1.6,42l27.8,48.5c3.9,6.7,9.1,10.6,14.4,10.6.4,0,48.4-.5,72.5-2.2,13.7-1,24-5.1,31.1-9.1ZM758.8,4.7c1.5-.9,3.2-1.3,4.9-1.3.3,0,32.8,1.2,92.9,30.8,32.5,16,50.2,29.7,54.4,42,2.3,6.8.2,12.6-2.2,17.4-6.7,13.5-17.9,30.4-18.1,30.5,0,.1-13.4,15.6-42,17.7-24,1.8-72,2.2-72.4,2.2-4.8,0-9.7-3.7-13.3-10l-27.8-48.5c-6.9-12.1-7.6-30.4-1.6-40.8l20-34.4c1.5-2.6,3.3-4.5,5.4-5.7Z"/></g><path class="e" d="m774,146.6v-1.2c-5.4-.6-13.3-15-13.4-15.2l-25.4-44.3c-6.8-11.8-6.4-21.6-6.4-21.7h-1.2c0,.4-.4,10.2,6.6,22.3l25.4,44.3c.3.6,8.3,15.2,14.5,15.8Z"/><path class="f" d="m853.5,55.9l-9.5,16.1c-5.4,9.1-14.6,15.4-25.1,16.9h0c-12.2,1.8-24.6.3-36-4.4l-24.6-10.1c-6.7-2.8-11.9-8.2-14.5-14.9h0c-1.6-4.2-1.2-8.8,1.1-12.7l16.8-28.7c3.2-5.5,8.9-9.2,15.3-9.9h0c7.4-.8,14.8-.2,21.9,2,11.3,3.5,25.3,8.5,41.8,15.9,6.1,2.7,11,7.6,13.6,13.7v.2c2.4,5.2,2,11.1-.8,15.9Z"/><g><path class="g" d="m853.5,55.9l-.2.4c-9.2-3.1-24.3-10.2-41.4-16-14.8-5-30.8-8.9-44.9-13.2,3.2-5.5,8.9-9.2,15.3-9.9,7.4-.8,14.8-.2,21.9,2,11.3,3.5,25.3,8.5,41.8,15.9,3.6,1.6,6.7,4,9.3,6.9,1.4,4.6.8,9.7-1.7,13.9Z"/><path class="g" d="m750.1,55.8l11.8-20.2c7.9.9,26.5,6.6,46.1,13.4,10.6,3.7,22,8.6,30.3,12.8,3.4,1.7,6.4,3.2,9.1,4.5l-3.4,5.7c-5.4,9.1-14.6,15.4-25.1,16.9-12.2,1.8-24.6.3-36-4.4l-24.6-10.1c-3.7-1.5-7-3.9-9.6-6.9-1.2-3.9-.7-8.1,1.4-11.7Z"/></g><path class="h" d="m743.3,59.6c-1.6-4.4-1.2-9.2,1.1-13.2l16.8-28.7c3.3-5.7,9.2-9.5,15.7-10.2,7.6-.8,15-.1,22.2,2,13.1,4,27.2,9.4,41.9,15.9,6.3,2.8,11.2,7.8,13.9,14v.2c2.4,5.3,2.1,11.5-.9,16.4l-9.5,16.1c-3.2,5.4-7.7,9.8-13,12.9-3.8,2.2-8.1,3.7-12.6,4.4-12.3,1.8-24.8.3-36.3-4.4l-24.6-10.2c-6.8-2.8-12.2-8.4-14.8-15.3Zm15.3,14.2l24.6,10.1s0,0,0,0c1.9.8,3.8,1.3,5.8,1.7,7.4,1.3,14.9,1.3,22.4,0,10.1-1.7,18.9-8,24.1-16.8l9.5-16.1c2.9-4.8,3.2-10.7.9-15.9v-.2c-2.7-6-7.5-10.9-13.4-13.6-1-.4-1.9-.8-2.8-1.3-10.7-4.5-21.1-8.2-30.9-11.2-7.1-2.2-14.5-2.8-22-2-6.1.7-11.4,4.3-14.5,9.6-4.9,8.4-12.8,21.8-16.8,28.7-2.1,3.6-2.6,7.9-1.1,11.8,2.4,6.7,7.6,12.2,14.2,14.9Z"/><path class="h" d="m729.7,53.9c.5,6.3,1.8,12.8,21.8,30.9,18.1,16.4,65.3,30.6,94.5,34.7,12.1-.8,32.4-6.4,42.7-20.9,17.9-25.3,10.9-37.6,10.8-37.7l1-.6c.3.5,7.6,13-10.9,39-3.7,5.2-8.8,9.4-14.4,12.6-7.8,4.5-16.5,7.1-23.9,8.3,4.1.4,7.7.6,10.6.5,23.3-.8,30.1-10.3,40.3-28.4,9.5-16.8,4.5-24.4,3.7-25.5,9.4,11.3,7.2,19.8,3.4,27.4-6.8,13.7-18.1,30.6-18.1,30.6,0,0-13.3,15.9-42.5,18-24,1.8-71.3,2.2-72.5,2.2-5,0-10.1-3.8-13.8-10.3l-27.8-48.5c-5.3-9.2-7-22-4.9-32.3Z"/><path class="f" d="m787.9,133.7c.3-.2.5-.4.7-.7.5-.8.3-1.9-.3-3l-7.8-13.6c-1.2-2.1-3.8-3.7-5.9-3.7h-8.3c-1,0-1.7.3-2.1,1-.5.8-.3,1.9.3,3l7.8,13.6c1.2,2.1,3.8,3.7,5.9,3.7h8.3c.5,0,1,0,1.4-.3Zm-22.7-20.2c.3-.2.7-.3,1.1-.3h8.3c1.8,0,4.3,1.6,5.4,3.5l7.8,13.6c.5.9.7,1.8.3,2.4-.3.5-.8.7-1.6.7h-8.3c-1.8,0-4.3-1.6-5.4-3.5l-7.8-13.6c-.5-.9-.7-1.8-.3-2.4.1-.2.3-.3.5-.5Z"/><path class="e" d="m911.8,91.3c1.2-2.4,1.9-7.1,1.9-7.3h-1.1s-.8,5-1.9,7.2h1.1Z"/><path class="f" d="m671.4,106.7l-11.7-20.4h-12.4s11.7,20.3,11.7,20.3h12.4Zm-12.4-19.1l10.3,17.9h-9.6s-10.3-18-10.3-18h9.6Z"/><path class="f" d="m491.9,106.3l-11.7-20.4h-12.4s11.7,20.3,11.7,20.3h12.4Zm-12.4-19.1l10.3,17.9h-9.6s-10.3-18-10.3-18h9.6Z"/><path class="f" d="m629,87.1l18.2,31.8h-53.4c0-.1-18.2-31.9-18.2-31.9h53.4Zm-46,1.1l14.2,24.8h45.4c0,.1-14.2-24.7-14.2-24.7h-45.4Z"/><path class="f" d="m553.7,86.9l18.2,31.8h-53.4c0-.1-18.2-31.9-18.2-31.9h53.4Zm-45.9,1.1l14.4,25.1h45.2c0,.1-14.4-24.9-14.4-24.9h-45.2Z"/><g><polygon class="f" points="408.5 40.2 438.5 40.3 453.7 14.2 423.6 14.2 408.5 40.2"/><polygon class="f" points="453.7 14.2 456.1 18.4 441 44.5 438.5 40.3 453.7 14.2"/><polygon class="g" points="410 42.9 440.1 42.9 455.2 16.9 425.1 16.8 410 42.9"/><path class="h" d="m408.1,39.6l15.1-26h30.1c0,0,.7,0,.7,0l.3.6,2.4,4.2-15.1,26-.4.6h-.7s-30.1,0-30.1,0l-2.4-4.2-.3-.6.4-.6Zm32.9,3.7l14.4-24.8-1.7-3-14.4,24.8,1.7,3Zm11.6-28.4h-28.7c0,0-14.4,24.7-14.4,24.7h28.7c0,0,14.4-24.7,14.4-24.7Z"/></g><g><polygon class="f" points="687.5 39.7 717.6 39.8 732.7 13.7 702.6 13.7 687.5 39.7"/><polygon class="f" points="732.7 13.7 735.1 17.9 720 44 717.6 39.8 732.7 13.7"/><polygon class="g" points="689 42.4 719.1 42.4 734.2 16.4 704.1 16.3 689 42.4"/><path class="h" d="m687.1,39.1l15.1-26h30.1c0,0,.7,0,.7,0l.3.6,2.4,4.2-15.1,26-.4.6h-.7s-30.1,0-30.1,0l-2.4-4.2-.3-.6.4-.6Zm32.9,3.7l14.4-24.8-1.7-3-14.4,24.8,1.7,3Zm11.6-28.4h-28.7c0,0-14.4,24.7-14.4,24.7h28.7c0,0,14.4-24.7,14.4-24.7Z"/></g><g><path class="e" d="m821.1,109.7c-3.5-1.3-2.6-6.4,1.1-6.5,3.1,0,6.8-.2,11.1-.4,21.4-1.1,30-13.9,30-13.9,0,0,9.3-15.3,15.6-26.8,6.1-11.2-8.5-21.3-9.5-22,6.5,3.5,12.2,6.9,16.9,10.1,8.3,9.1,3.2,20,3.2,20,0,0-9.6,18.3-17,28.1-7.4,9.8-20.6,15.4-35.2,15-5.5-.1-11.3-1.7-16.4-3.6Z"/><path class="g" d="m824.2,112.2c-3.5-1.3-2.6-6.4,1.1-6.5,3.1,0,6.8-.2,11.1-.4,21.4-1.1,30-13.9,30-13.9,0,0,9.3-15.3,15.6-26.8,6.1-11.2-8.5-21.3-9.5-22,6.5,3.5,12.2,6.9,17,10.1,8.3,9.1,3.2,20,3.2,20,0,0-9.6,18.3-17,28.1-7.4,9.8-20.6,15.4-35.2,15-5.5-.1-11.3-1.7-16.4-3.6Z"/><path class="h" d="m862.4,108c4.3-2.4,7.9-5.6,10.7-9.3,7.4-9.7,17-28,17.1-28.2,0-.1,5.2-11.3-3.3-20.7-5-3.3-10.7-6.7-17.1-10.2l-.6,1c.6.4,15.2,10.4,9.3,21.2-6.2,11.4-15.5,26.6-15.6,26.8,0,.1-8.7,12.5-29.5,13.6-4,.2-7.7.3-11.1.4-2.3,0-3.5,1.7-3.8,3.3-.3,1.6.4,3.6,2.5,4.4,6.2,2.3,11.7,3.5,16.6,3.6,9.2.2,17.9-1.9,24.9-6Zm12.2-64.3c4.2,2.4,8.1,4.8,11.5,7,7.8,8.6,3.1,19.1,3,19.2,0,.2-9.6,18.3-17,28-7.3,9.6-20.3,15.1-34.7,14.8-4.7-.1-10.1-1.3-16.2-3.6h0c-1.6-.6-1.9-2-1.7-3,.2-1,1-2.2,2.6-2.3,3.4,0,7.2-.2,11.2-.4,21.5-1.1,30.4-14,30.5-14.1.1-.2,9.4-15.4,15.6-26.9,4.1-7.5-.7-14.5-4.9-18.7Z"/></g><path class="h" d="m826.4,106.3c.3-1.1,1.2-1.8,2.4-2.3h0c1.4-.5,3.1-.5,4.8,0,2.3.7,4,2.2,4.7,3.7.3.8.4,1.5.2,2.3-.2.8-.8,1.4-1.6,1.9s-.8.4-1.2.5c-1.4.4-3,.3-4.6-.2-3.4-1.1-5.6-3.7-4.8-6Zm3.6,4.1c.8-.3,1.4-.8,1.6-1.4.4-1.2-.6-2.7-2.5-3.7-.2,0-.4.1-.5.2-.5.3-.9.7-1,1.2-.4,1.2.7,2.7,2.4,3.7Z"/><path class="h" d="m840.7,104.7c.3-1.1,1.2-1.8,2.4-2.3h0c1.4-.5,3.1-.5,4.8,0,2.3.7,4,2.2,4.7,3.7.3.8.4,1.5.2,2.3-.2.8-.8,1.4-1.6,1.9s-.8.4-1.2.5c-1.4.4-3,.3-4.6-.2-3.4-1.1-5.6-3.7-4.8-6Zm3.6,4.1c.8-.3,1.4-.8,1.6-1.4.4-1.2-.6-2.7-2.5-3.7-.2,0-.4.1-.5.2-.5.3-.9.7-1,1.2-.4,1.2.7,2.7,2.4,3.7Z"/><path class="h" d="m880.5,54.9c-.3-1.9-1.1-3.8-2.1-5.4,1,.5,1.9.7,2.5.5.5-.2.8-.7.8-1.3-1.3-1.2-2.9-1.8-3.9-1.4-.3.1-.5.3-.6.6-.2-.3-.5-.6-.7-.9.2-.2.4-.4.7-.5.8-.3,1.7-.3,2.7,0,.9.5,1.7,1,2.5,1.5.4.4.9.9,1.3,1.4.8,1.1,1.3,2.3,1.3,3.4,0,.4,0,.7-.1,1-.2.6-.6,1.1-1.3,1.4-.6.3-1.3.3-2.1.1-.4,0-.7-.2-1.1-.3Z"/></g></g></g></g></svg>