<?xml version="1.0" encoding="UTF-8"?><svg id="b" xmlns="http://www.w3.org/2000/svg" viewBox="0 0 913.7 149.2"><defs><style>.e{fill:#a02243;}.f{fill:#691b32;}.g{fill:#be315e;}.h{fill:#3d131f;}</style></defs><g id="c"><g id="d"><g><g><g><g><polygon class="e" points="628.8 142.4 614.9 120.9 653.6 136 628.8 142.4"/><path class="h" d="m628.5,143.1l-15.1-23.4,42.3,16.4-27.1,7Zm-12.1-21l12.6,19.6,22.6-5.8-35.3-13.7Z"/></g><g><polygon class="e" points="832 141.4 818.2 119.9 856.9 135 832 141.4"/><path class="h" d="m831.8,142.1l-15.1-23.4,42.3,16.4-27.1,7Zm-12.1-21l12.6,19.6,22.6-5.8-35.3-13.7Z"/></g><path class="e" d="m909,42l-20-34.4c-3-5.2-7.2-7.5-11.5-6.9l-347.8,1.8-10,110.2-2.2,30.5,47.6-.3,7.7-6.7c2.7-2.3,6.3-3.8,9.3-3.8h42.3c3-.1,4.9,1.4,4.9,3.7v6.5s138.9-.7,138.9-.7l7.8-6.9c2.7-2.3,6.3-3.8,9.3-3.8h42.3c3-.1,4.9,1.4,4.9,3.7v6.7s33.1-.2,33.1-.2c.5,0,1,0,1.5,0h0c4.4-.3,9-3.7,12.6-9.9l27.8-48.5c6.9-12,7.6-30.4,1.6-40.8Z"/><path class="h" d="m516.8,143.8l2.2-31.2,10.1-110.7h.6S877.5,0,877.5,0c4.7-.6,9,1.9,12,7.2l20,34.4c6.2,10.6,5.4,29.2-1.6,41.4l-27.8,48.5c-3.6,6.2-8.2,9.9-13.1,10.2-.5,0-1.1,0-1.6,0l-33.7.2v-7.3c0-.8-.2-1.5-.7-2-.7-.7-2-1.1-3.5-1.1h-42.3c-2.8.1-6.3,1.6-8.9,3.8l-8,7h-.2s-139.5.7-139.5.7v-7.2c0-.8-.2-1.5-.7-2-.7-.7-2-1.1-3.5-1.1h-42.3c-2.8.1-6.3,1.6-8.9,3.8l-7.9,6.9h-.2s-48.3.3-48.3.3Zm13.4-140.7l-10,109.6-2.1,29.9,46.7-.2,7.5-6.6c2.8-2.4,6.5-4,9.7-4h42.3c1.9-.1,3.4.4,4.3,1.4.8.8,1.2,1.8,1.1,2.9v5.9s138.1-.7,138.1-.7l7.6-6.7c2.8-2.4,6.5-4,9.7-4h42.3c1.9-.1,3.4.4,4.3,1.4.8.8,1.2,1.8,1.1,2.9v6s32.5-.2,32.5-.2c.5,0,.9,0,1.4,0,4.4-.3,8.8-3.8,12.1-9.6l27.8-48.5c6.8-11.9,7.5-29.9,1.6-40.2l-20-34.4c-2.8-4.8-6.7-7.2-10.9-6.6l-347.4,1.8Z"/><path class="h" d="m908.7,80.3l3.2-7,1-10-349.2.4-.4,8.6-2.4,6.4-.6,1.7-37.1-6.5-3.5,38.8-2.2,30.5,47.6-.3,7.7-6.7c2.7-2.3,6.3-3.8,9.3-3.8h42.3c3-.1,4.9,1.4,4.9,3.7v6.5s138.9-.7,138.9-.7l7.8-6.9c2.7-2.3,6.3-3.8,9.3-3.8h42.3c3-.1,4.9,1.4,4.9,3.7v6.7s33.1-.2,33.1-.2c.5,0,1,0,1.5,0h0c4.4-.3,9-3.7,12.6-9.9l27.8-48.5c.5-.8.9-1.6,1.3-2.5Z"/><g><g><path class="h" d="m596.8,139.3c-2.8,4.9-9.8,9-15.4,9-5.7,0-8-4-5.2-8.9,2.8-4.9,9.8-9,15.4-9,5.7,0,8,4,5.2,8.9Z"/><path class="f" d="m597.4,135.1l-17.5.3-.9,1.5h3.8c-1,.7-1.8,1.6-2.3,2.5-.8,1.4-.9,2.8-.3,3.9.3.5.7.8,1.1,1.1s1.5.6,2.4.6c3.1,0,6.8-2.1,8.4-4.9s.9-2.5.5-3.5h4c0,0,.9-1.6.9-1.6Zm-6.3,1.9c.3.6.2,1.4-.3,2.4-1.3,2.2-4.5,4.1-7,4.1-1.1,0-1.9-.3-2.2-.9-.3-.6-.2-1.4.3-2.4.8-1.4,2.4-2.6,4.1-3.4h4.9c.1,0,.2,0,.3.2Z"/></g><g><path class="h" d="m619.5,139c-2.8,4.9-9.8,9-15.4,9-5.7,0-8-4-5.2-8.9,2.8-4.9,9.8-9,15.4-9,5.7,0,8,4,5.2,8.9Z"/><path class="f" d="m620.1,134.8l-17.5.3-.9,1.5h3.8c-1,.7-1.8,1.6-2.3,2.5-.8,1.4-.9,2.8-.3,3.9.3.5.7.8,1.1,1.1s1.5.6,2.4.6c3.1,0,6.8-2.1,8.4-4.9s.9-2.5.5-3.5h4c0,0,.9-1.6.9-1.6Zm-6.3,1.9c.3.6.2,1.4-.3,2.4-1.3,2.2-4.5,4.1-7,4.1-1.1,0-1.9-.3-2.2-.9-.3-.6-.2-1.4.3-2.4.8-1.4,2.4-2.6,4.1-3.4h4.9c.1,0,.2,0,.3.2Z"/></g></g><g><g><path class="h" d="m798.8,137.8c-2.8,4.9-9.8,9-15.4,9-5.7,0-8-4-5.2-8.9,2.8-4.9,9.8-9,15.4-9,5.7,0,8,4,5.2,8.9Z"/><path class="f" d="m799.4,133.5l-17.5.3-.9,1.5h3.8c-1,.7-1.8,1.6-2.3,2.5-.8,1.4-.9,2.8-.3,3.9.3.5.7.8,1.1,1.1s1.5.6,2.4.6c3.1,0,6.8-2.1,8.4-4.9s.9-2.5.5-3.5h4c0,0,.9-1.6.9-1.6Zm-6.3,1.9c.3.6.2,1.4-.3,2.4-1.3,2.2-4.5,4.1-7,4.1-1.1,0-1.9-.3-2.2-.9-.3-.6-.2-1.4.3-2.4.8-1.4,2.4-2.6,4.1-3.4h4.9c.1,0,.2,0,.3.2Z"/></g><g><path class="h" d="m821.4,137.5c-2.8,4.9-9.8,9-15.4,9-5.7,0-8-4-5.2-8.9s9.8-9,15.4-9c5.7,0,8,4,5.2,8.9Z"/><path class="f" d="m822,133.2l-17.5.3-.9,1.5h3.8c-1,.7-1.8,1.6-2.3,2.5-.8,1.4-.9,2.8-.3,3.9.3.5.7.8,1.1,1.1s1.5.6,2.4.6c3.1,0,6.8-2.1,8.4-4.9.7-1.3.9-2.5.5-3.5h4c0,0,.9-1.6.9-1.6Zm-6.3,1.9c.3.6.2,1.4-.3,2.4-1.3,2.2-4.5,4.1-7,4.1-1.1,0-1.9-.3-2.2-.9-.3-.6-.2-1.4.3-2.4.8-1.4,2.4-2.6,4.1-3.4h4.9c.1,0,.2,0,.3.2Z"/></g></g><g><path class="e" d="m506.7,136.2l-20-34.4c-6-10.4-5.3-28.8,1.6-40.8l27.8-48.5c6.9-12,17.5-13.4,23.6-3l20,34.4c6,10.4,5.3,28.8-1.6,40.8l-27.8,48.5c-6.9,12-17.5,13.4-23.6,3Z"/><path class="h" d="m511.8,142.4c-2.1-1.2-4-3.2-5.6-5.9l-20-34.4c-6.2-10.6-5.4-29.2,1.6-41.4l27.8-48.5c3.7-6.5,8.8-10.3,13.8-10.3,4.2,0,8,2.6,10.8,7.3l20,34.4c6.2,10.6,5.4,29.2-1.6,41.4l-27.8,48.5c-3.7,6.5-8.8,10.3-13.8,10.3-1.8,0-3.6-.5-5.2-1.4Zm22.3-138.1c-1.4-.8-3-1.3-4.6-1.2-4.6,0-9.3,3.5-12.8,9.7l-27.8,48.5c-6.8,11.9-7.5,29.9-1.6,40.2l20,34.4c2.5,4.3,6,6.7,9.7,6.7,4.6,0,9.3-3.5,12.8-9.7l27.8-48.5c6.8-11.9,7.5-29.9,1.6-40.2l-20-34.4c-1.4-2.5-3.2-4.3-5.1-5.5Z"/></g><polygon class="g" points="890.9 29 904.9 53.1 571.6 52.6 557.6 28.4 890.9 29"/><polygon class="g" points="880.4 10.8 886.5 21.2 553.3 20.6 547.1 10.3 880.4 10.8"/><g><path class="e" d="m557.5,126.2c-.6-.3-1.1-.8-1.4-1.4-.9-1.6-.7-3.8.7-6l16.7-29.1c2.4-4.2,7.8-7.6,12-7.6h10.6c1.9,0,3.4.7,4.2,2,.9,1.6.7,3.8-.7,6l-16.7,29.1c-2.4,4.2-7.8,7.6-12,7.6h-10.6c-1.1,0-2.1-.2-2.8-.6Zm40.9-42.6c-.6-.4-1.4-.5-2.3-.5h-10.6c-3.9,0-8.9,3.2-11.2,7.2l-16.7,29.1c-1.1,2-1.4,3.8-.7,5.1.6,1,1.8,1.5,3.4,1.5h10.6c3.9,0,8.9-3.2,11.2-7.2l16.7-29.1c1.1-2,1.4-3.8.7-5.1-.2-.4-.6-.8-1-1Z"/><path class="e" d="m561.8,116.1l2.6-4.6h4.3c.5,0,1,.2,1.2.6.3.4.2,1-.2,1.6l-.2.4c-.6,1.1-2,1.9-3.1,1.9h-4.7Zm3-4l-1.9,3.4h3.6c.9,0,2-.8,2.5-1.6l.2-.4c.2-.4.3-.8.2-1-.1-.2-.4-.3-.7-.3h-4Z"/><path class="e" d="m592.3,88.4c-.6-1-1.8-1.6-3.3-1.6h-1.7c-3.2,0-7.3,2.6-9.2,5.8l-4.6,8c-1,1.8-1.2,3.5-.5,4.7.3.4.6.8,1.1,1.1s1.3.5,2.2.5h1.7c3.2,0,7.3-2.6,9.2-5.8l4.6-8c1-1.8,1.2-3.5.5-4.7Zm-1.9-.4c.1,0,.3,0,.4.1.3.2.6.4.7.7.5.9.3,2.3-.5,3.7l-4.6,8c-1.7,2.9-5.4,5.3-8.3,5.3h-1.7c-1.2,0-2-.4-2.4-1.1-.1-.2-.2-.4-.2-.7.2,0,.4,0,.6,0h1.7c3.2,0,7.2-2.6,9-5.7l4.6-8c.5-.8.7-1.7.8-2.4Zm-11.4,5.1c1.7-2.9,5.4-5.3,8.3-5.3h1.7c.3,0,.5,0,.7,0,0,.7-.3,1.5-.7,2.3l-4.6,8c-1.7,3-5.5,5.4-8.5,5.4h-1.7c-.2,0-.4,0-.6,0,0-.7.3-1.5.8-2.4l4.6-8Z"/></g><g><path class="e" d="m843.8,125.4c-.6-.3-1.1-.8-1.4-1.4-.9-1.6-.7-3.8.7-6l16.7-29.1c2.4-4.2,7.8-7.6,12-7.6h10.6c1.9,0,3.4.7,4.2,2,.9,1.6.7,3.8-.7,6l-16.7,29.1c-2.4,4.2-7.8,7.6-12,7.6h-10.6c-1.1,0-2.1-.2-2.8-.6Zm40.9-42.6c-.6-.4-1.4-.5-2.3-.5h-10.6c-3.9,0-8.9,3.2-11.2,7.2l-16.7,29.1c-1.1,2-1.4,3.8-.7,5.1.6,1,1.8,1.5,3.4,1.5h10.6c3.9,0,8.9-3.2,11.2-7.2l16.7-29.1c1.1-2,1.4-3.8.7-5.1-.2-.4-.6-.8-1-1Z"/><path class="e" d="m848.1,115.3l2.6-4.6h4.3c.5,0,1,.2,1.2.6.3.4.2,1-.2,1.6l-.2.4c-.6,1.1-2,1.9-3.1,1.9h-4.7Zm3-4l-1.9,3.4h3.6c.9,0,2-.8,2.5-1.6l.2-.4c.2-.4.3-.8.2-1-.1-.2-.4-.3-.7-.3h-4Z"/><path class="e" d="m878.5,87.6c-.6-1-1.8-1.6-3.3-1.6h-1.7c-3.2,0-7.3,2.6-9.2,5.8l-4.6,8c-1,1.8-1.2,3.5-.5,4.7.3.4.6.8,1.1,1.1s1.3.5,2.2.5h1.7c3.2,0,7.3-2.6,9.2-5.8l4.6-8c1-1.8,1.2-3.5.5-4.7Zm-1.9-.4c.1,0,.3,0,.4.1.3.2.6.4.7.7.5.9.3,2.3-.5,3.7l-4.6,8c-1.7,2.9-5.4,5.3-8.3,5.3h-1.7c-1.2,0-2-.4-2.4-1.1-.1-.2-.2-.4-.2-.7.2,0,.4,0,.6,0h1.7c3.2,0,7.2-2.6,9-5.7l4.6-8c.5-.8.7-1.7.8-2.4Zm-11.4,5.1c1.7-2.9,5.4-5.3,8.3-5.3h1.7c.3,0,.5,0,.7,0,0,.7-.3,1.5-.7,2.3l-4.6,8c-1.7,3-5.5,5.4-8.5,5.4h-1.7c-.2,0-.4,0-.6,0,0-.7.3-1.5.8-2.4l4.6-8Z"/></g><path class="e" d="m628.4,88.4c-.6-1-1.8-1.6-3.3-1.6h-1.7c-3.2,0-7.3,2.6-9.2,5.8l-4.6,8c-1,1.8-1.2,3.5-.5,4.7.3.5.6.8,1.1,1.1s1.3.5,2.2.5h1.7c3.2,0,7.3-2.6,9.2-5.8l4.6-8c1-1.8,1.2-3.5.5-4.7Zm-1.9-.4c.1,0,.3,0,.4.1.3.2.6.4.7.7.5.9.3,2.3-.5,3.7l-4.6,8c-1.7,2.9-5.4,5.3-8.3,5.3h-1.7c-1.2,0-2-.4-2.4-1.1-.1-.2-.2-.4-.2-.7.2,0,.4,0,.6,0h1.7c3.2,0,7.2-2.6,9-5.7l4.6-8c.5-.8.7-1.7.8-2.4Zm-11.4,5.1c1.7-2.9,5.4-5.3,8.3-5.3h1.7c.3,0,.5,0,.7,0,0,.7-.3,1.5-.7,2.3l-4.6,8c-1.7,3-5.5,5.4-8.5,5.4h-1.7c-.2,0-.4,0-.6,0,0-.7.3-1.5.8-2.4l4.6-8Z"/><path class="e" d="m647.8,88c-.6-1-1.8-1.6-3.3-1.6h-1.7c-3.2,0-7.3,2.6-9.2,5.8l-4.6,8c-1,1.8-1.2,3.5-.5,4.7.3.5.6.8,1.1,1.1s1.3.5,2.2.5h1.7c3.2,0,7.3-2.6,9.2-5.8l4.6-8c1-1.8,1.2-3.5.5-4.7Zm-1.9-.4c.1,0,.3,0,.4.1.3.2.6.4.7.7.5.9.3,2.3-.5,3.7l-4.6,8c-1.7,2.9-5.4,5.3-8.3,5.3h-1.7c-1.2,0-2-.4-2.4-1.1-.1-.2-.2-.4-.2-.7.2,0,.4,0,.6,0h1.7c3.2,0,7.2-2.6,9-5.7l4.6-8c.5-.8.7-1.7.8-2.4Zm-11.4,5.1c1.7-2.9,5.4-5.3,8.3-5.3h1.7c.3,0,.5,0,.7,0,0,.7-.3,1.5-.7,2.3l-4.6,8c-1.7,3-5.5,5.4-8.5,5.4h-1.7c-.2,0-.4,0-.6,0,0-.7.3-1.5.8-2.4l4.6-8Z"/><path class="e" d="m667.1,87.7c-.6-1-1.8-1.6-3.3-1.6h-1.7c-3.2,0-7.3,2.6-9.2,5.8l-4.6,8c-1,1.8-1.2,3.5-.5,4.7.3.5.6.8,1.1,1.1s1.3.5,2.2.5h1.7c3.2,0,7.3-2.6,9.2-5.8l4.6-8c1-1.8,1.2-3.5.5-4.7Zm-1.9-.4c.1,0,.3,0,.4.1.3.2.6.4.7.7.5.9.3,2.3-.5,3.7l-4.6,8c-1.7,2.9-5.4,5.3-8.3,5.3h-1.7c-1.2,0-2-.4-2.4-1.1-.1-.2-.2-.4-.2-.7.2,0,.4,0,.6,0h1.7c3.2,0,7.2-2.6,9-5.7l4.6-8c.5-.8.7-1.7.8-2.4Zm-11.4,5.1c1.7-2.9,5.4-5.3,8.3-5.3h1.7c.3,0,.5,0,.7,0,0,.7-.3,1.5-.7,2.3l-4.6,8c-1.7,3-5.5,5.4-8.5,5.4h-1.7c-.2,0-.4,0-.6,0,0-.7.3-1.5.8-2.4l4.6-8Z"/><path class="e" d="m686.4,87.5c-.6-1-1.8-1.6-3.3-1.6h-1.7c-3.2,0-7.3,2.6-9.2,5.8l-4.6,8c-1,1.8-1.2,3.5-.5,4.7.3.4.6.8,1.1,1.1s1.3.5,2.2.5h1.7c3.2,0,7.3-2.6,9.2-5.8l4.6-8c1-1.8,1.2-3.5.5-4.7Zm-1.9-.4c.1,0,.3,0,.4.1.3.2.6.4.7.7.5.9.3,2.3-.5,3.7l-4.6,8c-1.7,2.9-5.4,5.3-8.3,5.3h-1.7c-1.2,0-2-.4-2.4-1.1-.1-.2-.2-.4-.2-.7.2,0,.4,0,.6,0h1.7c3.2,0,7.2-2.6,9-5.7l4.6-8c.5-.8.7-1.7.8-2.4Zm-11.4,5.1c1.7-2.9,5.4-5.3,8.3-5.3h1.7c.3,0,.5,0,.7,0,0,.7-.3,1.5-.7,2.3l-4.6,8c-1.7,3-5.5,5.4-8.5,5.4h-1.7c-.2,0-.4,0-.6,0,0-.7.3-1.5.8-2.4l4.6-8Z"/><path class="e" d="m705.6,87.4c-.6-1-1.8-1.6-3.3-1.6h-1.7c-3.2,0-7.3,2.6-9.2,5.8l-4.6,8c-1,1.8-1.2,3.5-.5,4.7.3.5.6.8,1.1,1.1s1.3.5,2.2.5h1.7c3.2,0,7.3-2.6,9.2-5.8l4.6-8c1-1.8,1.2-3.5.5-4.7Zm-1.9-.4c.1,0,.3,0,.4.1.3.2.6.4.7.7.5.9.3,2.3-.5,3.7l-4.6,8c-1.7,2.9-5.4,5.3-8.3,5.3h-1.7c-1.2,0-2-.4-2.4-1.1-.1-.2-.2-.4-.2-.7.2,0,.4,0,.6,0h1.7c3.2,0,7.2-2.6,9-5.7l4.6-8c.5-.8.7-1.7.8-2.4Zm-11.4,5.1c1.7-2.9,5.4-5.3,8.3-5.3h1.7c.3,0,.5,0,.7,0,0,.7-.3,1.5-.7,2.3l-4.6,8c-1.7,3-5.5,5.4-8.5,5.4h-1.7c-.2,0-.4,0-.6,0,0-.7.3-1.5.8-2.4l4.6-8Z"/><path class="e" d="m724.7,87.4c-.6-1-1.8-1.6-3.3-1.6h-1.7c-3.2,0-7.3,2.6-9.2,5.8l-4.6,8c-1,1.8-1.2,3.5-.5,4.7.3.4.6.8,1.1,1.1s1.3.5,2.2.5h1.7c3.2,0,7.3-2.6,9.2-5.8l4.6-8c1-1.8,1.2-3.5.5-4.7Zm-1.9-.4c.1,0,.3,0,.4.1.3.2.6.4.7.7.5.9.3,2.3-.5,3.7l-4.6,8c-1.7,2.9-5.4,5.3-8.3,5.3h-1.7c-1.2,0-2-.4-2.4-1.1-.1-.2-.2-.4-.2-.7.2,0,.4,0,.6,0h1.7c3.2,0,7.2-2.6,9-5.7l4.6-8c.5-.8.7-1.7.8-2.4Zm-11.4,5.1c1.7-2.9,5.4-5.3,8.3-5.3h1.7c.3,0,.5,0,.7,0,0,.7-.3,1.5-.7,2.3l-4.6,8c-1.7,3-5.5,5.4-8.5,5.4h-1.7c-.2,0-.4,0-.6,0,0-.7.3-1.5.8-2.4l4.6-8Z"/><path class="e" d="m744.1,87.1c-.6-1-1.8-1.6-3.3-1.6h-1.7c-3.2,0-7.3,2.6-9.2,5.8l-4.6,8c-1,1.8-1.2,3.5-.5,4.7.3.4.6.8,1.1,1.1s1.3.5,2.2.5h1.7c3.2,0,7.3-2.6,9.2-5.8l4.6-8c1-1.8,1.2-3.5.5-4.7Zm-1.9-.4c.1,0,.3,0,.4.1.3.2.6.4.7.7.5.9.3,2.3-.5,3.7l-4.6,8c-1.7,2.9-5.4,5.3-8.3,5.3h-1.7c-1.2,0-2-.4-2.4-1.1-.1-.2-.2-.4-.2-.7.2,0,.4,0,.6,0h1.7c3.2,0,7.2-2.6,9-5.7l4.6-8c.5-.8.7-1.7.8-2.4Zm-11.4,5.1c1.7-2.9,5.4-5.3,8.3-5.3h1.7c.3,0,.5,0,.7,0,0,.7-.3,1.5-.7,2.3l-4.6,8c-1.7,3-5.5,5.4-8.5,5.4h-1.7c-.2,0-.4,0-.6,0,0-.7.3-1.5.8-2.4l4.6-8Z"/><path class="e" d="m763.3,87c-.6-1-1.8-1.6-3.3-1.6h-1.7c-3.2,0-7.3,2.6-9.2,5.8l-4.6,8c-1,1.8-1.2,3.5-.5,4.7.3.5.6.8,1.1,1.1s1.3.5,2.2.5h1.7c3.2,0,7.3-2.6,9.2-5.8l4.6-8c1-1.8,1.2-3.5.5-4.7Zm-1.9-.4c.1,0,.3,0,.4.1.3.2.6.4.7.7.5.9.3,2.3-.5,3.7l-4.6,8c-1.7,2.9-5.4,5.3-8.3,5.3h-1.7c-1.2,0-2-.4-2.4-1.1-.1-.2-.2-.4-.2-.7.2,0,.4,0,.6,0h1.7c3.2,0,7.2-2.6,9-5.7l4.6-8c.5-.8.7-1.7.8-2.4Zm-11.4,5.1c1.7-2.9,5.4-5.3,8.3-5.3h1.7c.3,0,.5,0,.7,0,0,.7-.3,1.5-.7,2.3l-4.6,8c-1.7,3-5.5,5.4-8.5,5.4h-1.7c-.2,0-.4,0-.6,0,0-.7.3-1.5.8-2.4l4.6-8Z"/><path class="e" d="m782.5,86.9c-.6-1-1.8-1.6-3.3-1.6h-1.7c-3.2,0-7.3,2.6-9.2,5.8l-4.6,8c-1,1.8-1.2,3.5-.5,4.7.3.4.6.8,1.1,1.1s1.3.5,2.2.5h1.7c3.2,0,7.3-2.6,9.2-5.8l4.6-8c1-1.8,1.2-3.5.5-4.7Zm-1.9-.4c.1,0,.3,0,.4.1.3.2.6.4.7.7.5.9.3,2.3-.5,3.7l-4.6,8c-1.7,2.9-5.4,5.3-8.3,5.3h-1.7c-1.2,0-2-.4-2.4-1.1-.1-.2-.2-.4-.2-.7.2,0,.4,0,.6,0h1.7c3.2,0,7.2-2.6,9-5.7l4.6-8c.5-.8.7-1.7.8-2.4Zm-11.4,5.1c1.7-2.9,5.4-5.3,8.3-5.3h1.7c.3,0,.5,0,.7,0,0,.7-.3,1.5-.7,2.3l-4.6,8c-1.7,3-5.5,5.4-8.5,5.4h-1.7c-.2,0-.4,0-.6,0,0-.7.3-1.5.8-2.4l4.6-8Z"/><path class="e" d="m801.7,87c-.6-1-1.8-1.6-3.3-1.6h-1.7c-3.2,0-7.3,2.6-9.2,5.8l-4.6,8c-1,1.8-1.2,3.5-.5,4.7.3.4.6.8,1.1,1.1s1.3.5,2.2.5h1.7c3.2,0,7.3-2.6,9.2-5.8l4.6-8c1-1.8,1.2-3.5.5-4.7Zm-1.9-.4c.1,0,.3,0,.4.1.3.2.6.4.7.7.5.9.3,2.3-.5,3.7l-4.6,8c-1.7,2.9-5.4,5.3-8.3,5.3h-1.7c-1.2,0-2-.4-2.4-1.1-.1-.2-.2-.4-.2-.7.2,0,.4,0,.6,0h1.7c3.2,0,7.2-2.6,9-5.7l4.6-8c.5-.8.7-1.7.8-2.4Zm-11.4,5.1c1.7-2.9,5.4-5.3,8.3-5.3h1.7c.3,0,.5,0,.7,0,0,.7-.3,1.5-.7,2.3l-4.6,8c-1.7,3-5.5,5.4-8.5,5.4h-1.7c-.2,0-.4,0-.6,0,0-.7.3-1.5.8-2.4l4.6-8Z"/><path class="e" d="m820.9,86.8c-.6-1-1.8-1.6-3.3-1.6h-1.7c-3.2,0-7.3,2.6-9.2,5.8l-4.6,8c-1,1.8-1.2,3.5-.5,4.7.3.5.6.8,1.1,1.1s1.3.5,2.2.5h1.7c3.2,0,7.3-2.6,9.2-5.8l4.6-8c1-1.8,1.2-3.5.5-4.7Zm-1.9-.4c.1,0,.3,0,.4.1.3.2.6.4.7.7.5.9.3,2.3-.5,3.7l-4.6,8c-1.7,2.9-5.4,5.3-8.3,5.3h-1.7c-1.2,0-2-.4-2.4-1.1-.1-.2-.2-.4-.2-.7.2,0,.4,0,.6,0h1.7c3.2,0,7.2-2.6,9-5.7l4.6-8c.5-.8.7-1.7.8-2.4Zm-11.4,5.1c1.7-2.9,5.4-5.3,8.3-5.3h1.7c.3,0,.5,0,.7,0,0,.7-.3,1.5-.7,2.3l-4.6,8c-1.7,3-5.5,5.4-8.5,5.4h-1.7c-.2,0-.4,0-.6,0,0-.7.3-1.5.8-2.4l4.6-8Z"/><path class="e" d="m840.1,86.8c-.6-1-1.8-1.6-3.3-1.6h-1.7c-3.2,0-7.3,2.6-9.2,5.8l-4.6,8c-1,1.8-1.2,3.5-.5,4.7.3.4.6.8,1.1,1.1s1.3.5,2.2.5h1.7c3.2,0,7.3-2.6,9.2-5.8l4.6-8c1-1.8,1.2-3.5.5-4.7Zm-1.9-.4c.1,0,.3,0,.4.1.3.2.6.4.7.7.5.9.3,2.3-.5,3.7l-4.6,8c-1.7,2.9-5.4,5.3-8.3,5.3h-1.7c-1.2,0-2-.4-2.4-1.1-.1-.2-.2-.4-.2-.7.2,0,.4,0,.6,0h1.7c3.2,0,7.2-2.6,9-5.7l4.6-8c.5-.8.7-1.7.8-2.4Zm-11.4,5.1c1.7-2.9,5.4-5.3,8.3-5.3h1.7c.3,0,.5,0,.7,0,0,.7-.3,1.5-.7,2.3l-4.6,8c-1.7,3-5.5,5.4-8.5,5.4h-1.7c-.2,0-.4,0-.6,0,0-.7.3-1.5.8-2.4l4.6-8Z"/><path class="e" d="m642.2,143.1h-.7s4.9-8.6,4.9-8.6c.6-1.1,1.8-1.8,3.1-1.8l106.7-1.3c.6,0,1.2.3,1.6.9.3.6.3,1.2,0,1.8l-4.9,8.5h-.7s5-8.8,5-8.8c.2-.4.2-.8,0-1.2-.2-.4-.6-.6-1-.6l-106.7,1.3c-1,0-2,.6-2.5,1.5l-4.8,8.3Z"/><g><path class="h" d="m577.9,39.4c-1.3-.8-2.4-1.8-3.1-2.9l-11.5-19.8c-.7-1.2-.8-2.3-.2-3.2.6-1.1,2-1.7,3.8-1.7h6.4c3.2,0,6.8,1.9,8.2,4.3l11.5,19.8c.7,1.2.8,2.3.2,3.2-.6,1.1-2,1.7-3.8,1.7h-6.4c-1.7,0-3.6-.5-5.2-1.4Zm0-25.1c-1.4-.8-3.1-1.3-4.6-1.3h-6.4c-1.3,0-2.3.4-2.7,1.1-.4.7,0,1.5.2,2l11.5,19.8c1.2,2.1,4.4,3.7,7.2,3.7h6.4c1.3,0,2.3-.4,2.7-1.1.4-.7.1-1.5-.2-2l-11.5-19.8c-.5-.9-1.5-1.8-2.6-2.4Z"/><path class="h" d="m574.9,30.3c-.4-.2-.7-.5-.9-.9h0s-3.3-5.6-3.3-5.6c-.2-.4-.3-.9,0-1.2.2-.4.7-.6,1.3-.6h1c.9,0,2,.5,2.4,1.3l3.3,5.6c.2.4.3.9,0,1.2s-.7.6-1.3.6h-1c-.5,0-1-.1-1.5-.4Zm.1-1.5c.2.3.8.7,1.3.7h1c.2,0,.3,0,.3,0l-3.3-5.6c-.2-.3-.8-.7-1.3-.7h-1c-.2,0-.3,0-.3,0l3.3,5.6Z"/></g><g><path class="h" d="m872.1,38.5c-1.3-.8-2.4-1.8-3.1-2.9l-11.5-19.8c-.7-1.2-.8-2.3-.2-3.2s2-1.7,3.8-1.7h6.4c3.2,0,6.8,1.9,8.2,4.3l11.5,19.8c.7,1.2.8,2.3.2,3.2-.6,1.1-2,1.7-3.8,1.7h-6.4c-1.7,0-3.6-.5-5.2-1.4Zm-2-3.5c1.2,2.1,4.4,3.7,7.2,3.7h6.4c1.3,0,2.3-.4,2.7-1.1.4-.7.1-1.5-.2-2l-11.5-19.8c-1.2-2.1-4.4-3.7-7.2-3.7h-6.4c-1.3,0-2.3.4-2.7,1.1s0,1.5.2,2l11.5,19.8Z"/><path class="h" d="m869.1,29.4c-.4-.2-.7-.5-.9-.9h0s-3.3-5.6-3.3-5.6c-.2-.4-.3-.9,0-1.2s.7-.6,1.3-.6h1c.9,0,1.9.5,2.4,1.3l3.3,5.6c.2.4.3.9,0,1.2s-.7.6-1.3.6h-1c-.5,0-1-.2-1.5-.4Zm.1-1.5c.2.3.8.7,1.3.7h1c.2,0,.3,0,.3,0l-3.3-5.6c-.2-.3-.8-.7-1.3-.7h-1c-.2,0-.3,0-.3,0l3.3,5.6Z"/></g><path class="f" d="m533.6,137.8c-.2-.1-.3-.2-.4-.4-.3-.5-.2-1.1.2-1.7l2.2-3.8c.7-1.1,2.1-2,3.2-2.1h8.2c.6,0,1,.2,1.2.6.3.5.2,1.1-.2,1.7l-2.2,3.8c-.7,1.1-2.1,2-3.2,2.1h-8.2c-.3,0-.6,0-.8-.2Zm13.8-7.3c-.2,0-.3-.1-.5-.1h-8.2c-.9,0-2.2.8-2.7,1.8l-2.2,3.8c-.3.4-.3.9-.2,1.1.2.3.5.3.7.3h8.2s0,.3,0,.3v-.3c.9,0,2.2-.8,2.7-1.7l2.2-3.8c.3-.4.3-.9.2-1.1,0,0-.1-.1-.2-.2Z"/><path class="f" d="m860.1,139c-.2-.1-.3-.2-.4-.4-.3-.5-.2-1.1.2-1.7l2.2-3.8c.7-1.1,2.1-2,3.2-2.1h8.2c.6,0,1,.2,1.2.6.3.5.2,1.1-.2,1.7l-2.2,3.8c-.7,1.1-2.1,2-3.2,2.1h-8.2c-.3,0-.6,0-.8-.2Zm13.8-7.3c-.2,0-.4-.1-.5-.1h-8.2c-.9,0-2.2.8-2.7,1.8l-2.2,3.8c-.3.4-.3.9-.2,1.1.1.3.5.3.7.3h8.2c.9,0,2.2-.8,2.7-1.8l2.2-3.8c.3-.4.3-.9.2-1.1,0,0-.1-.1-.2-.2Z"/></g><g><path class="e" d="m552.3,43.4l-20-34.4c-3-5.2-7.2-7.5-11.5-6.9l-14.1-.2-10,110.2-2.2,30.5h14.3c.5.1,1,.1,1.5,0h0c4.4-.3,9-3.7,12.6-9.9l27.8-48.5c6.9-12,7.6-30.4,1.6-40.8Z"/><path class="h" d="m493.9,143.1l2.2-31.2L506.2,1.2h.6s14.1.2,14.1.2c4.7-.6,9,1.9,12,7.2l20,34.4c6.2,10.6,5.4,29.2-1.6,41.4l-27.8,48.5c-3.6,6.2-8.2,9.9-13.1,10.2-.5,0-1.1,0-1.6,0h-14.9ZM507.3,2.4l-10,109.6-2.1,29.9h13.7c.5.1.9.1,1.4,0,4.4-.3,8.8-3.8,12.1-9.6l27.8-48.5c6.8-11.9,7.5-29.9,1.6-40.2l-20-34.4c-2.8-4.8-6.7-7.2-10.9-6.6l-13.6-.2Z"/><path class="h" d="m552.1,81.7l3.2-7,1.1-11.5h-15.5c0,0-.4,8.5-.4,8.5l-2.4,6.4-.6,1.7-37.1-6.5-3.5,38.8-2.2,30.5h14.3c.5.1,1,.1,1.5,0h0c4.4-.3,9-3.7,12.6-9.9l27.8-48.5c.5-.8.9-1.6,1.3-2.5Z"/><g><path class="e" d="m483.8,135.6l-20-34.4c-6-10.4-5.3-28.8,1.6-40.8l27.8-48.5c6.9-12,17.5-13.4,23.6-3l20,34.4c6,10.4,5.3,28.8-1.6,40.8l-27.8,48.5c-6.9,12-17.5,13.4-23.6,3Z"/><path class="h" d="m488.9,141.8c-2.1-1.2-4-3.2-5.6-5.9l-20-34.4c-6.2-10.6-5.4-29.2,1.6-41.4l27.8-48.5c3.7-6.5,8.8-10.3,13.8-10.3,4.2,0,8,2.6,10.8,7.3l20,34.4c6.2,10.6,5.4,29.2-1.6,41.4l-27.8,48.5c-3.7,6.5-8.8,10.3-13.8,10.3-1.8,0-3.6-.5-5.2-1.4ZM511.1,3.7c-1.4-.8-3-1.3-4.6-1.2-4.6,0-9.3,3.5-12.8,9.7l-27.8,48.5c-6.8,11.9-7.5,29.9-1.6,40.2l20,34.4c2.5,4.3,6,6.7,9.7,6.7,4.6,0,9.3-3.5,12.8-9.7l27.8-48.5c6.8-11.9,7.5-29.9,1.6-40.2l-20-34.4c-1.4-2.5-3.2-4.3-5.1-5.5Z"/></g><polygon class="h" points="515.1 7.3 531.1 7.4 525 2.1 511.1 2.4 508.1 2 512.6 3.8 515.1 7.3"/></g></g><g><g><polygon class="e" points="249.4 143.3 235.5 121.8 274.3 136.9 249.4 143.3"/><path class="h" d="m249.1,144l-15.1-23.4,42.3,16.4-27.1,7Zm-12.1-21l12.6,19.6,22.6-5.8-35.3-13.7Z"/></g><g><polygon class="e" points="452.7 142.3 438.8 120.8 477.5 135.9 452.7 142.3"/><path class="h" d="m452.4,143l-15.1-23.4,42.3,16.4-27.1,7Zm-12.1-21l12.6,19.6,22.6-5.8-35.3-13.7Z"/></g><path class="e" d="m529.6,42.9l-20-34.4c-3-5.2-7.2-7.5-11.5-6.9l-347.8,1.8-10,110.2-2.2,30.5,47.6-.3,7.7-6.7c2.7-2.3,6.3-3.8,9.3-3.8h42.3c3-.1,4.9,1.4,4.9,3.7v6.5s138.9-.7,138.9-.7l7.8-6.9c2.7-2.3,6.3-3.8,9.3-3.8h42.3c3-.1,4.9,1.4,4.9,3.7v6.7s33.1-.2,33.1-.2c.5,0,1,0,1.5,0h0c4.4-.3,9-3.7,12.6-9.9l27.8-48.5c6.9-12,7.6-30.4,1.6-40.8Z"/><path class="h" d="m137.4,144.7l2.2-31.2L149.7,2.8h.6S498.1,1,498.1,1c4.7-.6,9,1.9,12,7.2l20,34.4c6.2,10.6,5.4,29.2-1.6,41.4l-27.8,48.5c-3.6,6.2-8.2,9.9-13.1,10.2-.5,0-1.1,0-1.6,0l-33.7.2v-7.3c0-.8-.2-1.5-.7-2-.7-.7-2-1.1-3.5-1.1h-42.3c-2.8.1-6.3,1.6-8.9,3.8l-8,7h-.2s-139.5.7-139.5.7v-7.2c0-.8-.2-1.5-.7-2-.7-.7-2-1.1-3.5-1.1h-42.3c-2.8.1-6.3,1.6-8.9,3.8l-7.9,6.9h-.2s-48.3.3-48.3.3ZM150.8,4l-10,109.6-2.1,29.9,46.7-.2,7.5-6.6c2.8-2.4,6.5-4,9.7-4h42.3c1.9-.1,3.4.4,4.3,1.4.8.8,1.2,1.8,1.1,2.9v5.9s138.1-.7,138.1-.7l7.6-6.7c2.8-2.4,6.5-4,9.7-4h42.3c1.9-.1,3.4.4,4.3,1.4.8.8,1.2,1.8,1.1,2.9v6s32.5-.2,32.5-.2c.5,0,.9,0,1.4,0,4.4-.3,8.8-3.8,12.1-9.6l27.8-48.5c6.8-11.9,7.5-29.9,1.6-40.2l-20-34.4c-2.8-4.8-6.7-7.2-10.9-6.6l-347.4,1.8Z"/><path class="h" d="m529.3,81.2l3.2-7,1-10-349.2.4-.4,8.6-2.4,6.4-.6,1.7-37.1-6.5-3.5,38.8-2.2,30.5,47.6-.3,7.7-6.7c2.7-2.3,6.3-3.8,9.3-3.8h42.3c3-.1,4.9,1.4,4.9,3.7v6.5s138.9-.7,138.9-.7l7.8-6.9c2.7-2.3,6.3-3.8,9.3-3.8h42.3c3-.1,4.9,1.4,4.9,3.7v6.7s33.1-.2,33.1-.2c.5,0,1,0,1.5,0h0c4.4-.3,9-3.7,12.6-9.9l27.8-48.5c.5-.8.9-1.6,1.3-2.5Z"/><g><g><path class="h" d="m217.4,140.2c-2.8,4.9-9.8,9-15.4,9-5.7,0-8-4-5.2-8.9,2.8-4.9,9.8-9,15.4-9,5.7,0,8,4,5.2,8.9Z"/><path class="f" d="m218.1,136l-17.5.3-.9,1.5h3.8c-1,.7-1.8,1.6-2.3,2.5-.8,1.4-.9,2.8-.3,3.9.3.5.7.8,1.1,1.1s1.5.6,2.4.6c3.1,0,6.8-2.1,8.4-4.9.7-1.3.9-2.5.5-3.5h4c0,0,.9-1.6.9-1.6Zm-6.3,1.9c.3.6.2,1.4-.3,2.4-1.3,2.2-4.5,4.1-7,4.1-1.1,0-1.9-.3-2.2-.9-.3-.6-.2-1.4.3-2.4.8-1.4,2.4-2.6,4.1-3.4h4.9c.1,0,.2,0,.3.2Z"/></g><g><path class="h" d="m240.1,139.9c-2.8,4.9-9.8,9-15.4,9-5.7,0-8-4-5.2-8.9,2.8-4.9,9.8-9,15.4-9,5.7,0,8,4,5.2,8.9Z"/><path class="f" d="m240.7,135.7l-17.5.3-.9,1.5h3.8c-1,.7-1.8,1.6-2.3,2.5-.8,1.4-.9,2.8-.3,3.9.3.5.7.8,1.1,1.1s1.5.6,2.4.6c3.1,0,6.8-2.1,8.4-4.9s.9-2.5.5-3.5h4c0,0,.9-1.6.9-1.6Zm-6.3,1.9c.3.6.2,1.4-.3,2.4-1.3,2.2-4.5,4.1-7,4.1-1.1,0-1.9-.3-2.2-.9-.3-.6-.2-1.4.3-2.4.8-1.4,2.4-2.6,4.1-3.4h4.9c.1,0,.2,0,.3.2Z"/></g></g><g><g><path class="h" d="m419.4,138.7c-2.8,4.9-9.8,9-15.4,9-5.7,0-8-4-5.2-8.9,2.8-4.9,9.8-9,15.4-9,5.7,0,8,4,5.2,8.9Z"/><path class="f" d="m420,134.4l-17.5.3-.9,1.5h3.8c-1,.7-1.8,1.6-2.3,2.5-.8,1.4-.9,2.8-.3,3.9.3.5.7.8,1.1,1.1s1.5.6,2.4.6c3.1,0,6.8-2.1,8.4-4.9.7-1.3.9-2.5.5-3.5h4c0,0,.9-1.6.9-1.6Zm-6.3,1.9c.3.6.2,1.4-.3,2.4-1.3,2.2-4.5,4.1-7,4.1-1.1,0-1.9-.3-2.2-.9-.3-.6-.2-1.4.3-2.4.8-1.4,2.4-2.6,4.1-3.4h4.9c.1,0,.2,0,.3.2Z"/></g><g><path class="h" d="m442,138.4c-2.8,4.9-9.8,9-15.4,9-5.7,0-8-4-5.2-8.9,2.8-4.9,9.8-9,15.4-9,5.7,0,8,4,5.2,8.9Z"/><path class="f" d="m442.6,134.1l-17.5.3-.9,1.5h3.8c-1,.7-1.8,1.6-2.3,2.5-.8,1.4-.9,2.8-.3,3.9.3.5.7.8,1.1,1.1s1.5.6,2.4.6c3.1,0,6.8-2.1,8.4-4.9.7-1.3.9-2.5.5-3.5h4c0,0,.9-1.6.9-1.6Zm-6.3,1.9c.3.6.2,1.4-.3,2.4-1.3,2.2-4.5,4.1-7,4.1-1.1,0-1.9-.3-2.2-.9-.3-.6-.2-1.4.3-2.4.8-1.4,2.4-2.6,4.1-3.4h4.9c.1,0,.2,0,.3.2Z"/></g></g><polygon class="g" points="511.5 29.9 525.5 54 192.2 53.5 178.2 29.3 511.5 29.9"/><polygon class="g" points="501 11.7 507.1 22.1 173.9 21.5 167.8 11.2 501 11.7"/><g><path class="e" d="m178.1,127.1c-.6-.3-1.1-.8-1.4-1.4-.9-1.5-.7-3.8.7-6l16.7-29.1c2.4-4.2,7.8-7.6,12-7.6h10.6c1.9,0,3.4.7,4.2,2,.9,1.6.7,3.8-.7,6l-16.7,29.1c-2.4,4.2-7.8,7.6-12,7.6h-10.6c-1.1,0-2.1-.2-2.8-.6Zm40.9-42.6c-.6-.4-1.4-.5-2.3-.5h-10.6c-3.9,0-8.9,3.2-11.2,7.2l-16.7,29.1c-1.1,2-1.4,3.8-.7,5.1.6,1,1.8,1.5,3.4,1.5h10.6c3.9,0,8.9-3.2,11.2-7.2l16.7-29.1c1.1-2,1.4-3.8.7-5.1-.2-.4-.6-.8-1-1Z"/><path class="e" d="m182.4,117.1l2.6-4.6h4.3c.5,0,1,.2,1.2.6.3.4.2,1-.2,1.6l-.2.4c-.6,1.1-2,1.9-3.1,1.9h-4.7Zm3-4l-1.9,3.4h3.6c.9,0,2-.8,2.5-1.6l.2-.4c.2-.4.3-.8.2-1-.1-.2-.4-.3-.7-.3h-4Z"/><path class="e" d="m212.9,89.3c-.6-1-1.8-1.6-3.3-1.6h-1.7c-3.2,0-7.3,2.6-9.2,5.8l-4.6,8c-1,1.8-1.2,3.5-.5,4.7.3.4.6.8,1.1,1.1s1.3.5,2.2.5h1.7c3.2,0,7.3-2.6,9.2-5.8l4.6-8c1-1.8,1.2-3.5.5-4.7Zm-1.9-.4c.1,0,.3,0,.4.1.3.2.6.4.7.7.5.9.3,2.3-.5,3.7l-4.6,8c-1.7,2.9-5.4,5.3-8.3,5.3h-1.7c-1.2,0-2-.4-2.4-1.1-.1-.2-.2-.4-.2-.7.2,0,.4,0,.6,0h1.7c3.2,0,7.2-2.6,9-5.7l4.6-8c.5-.8.7-1.7.8-2.4Zm-11.4,5.1c1.7-2.9,5.4-5.3,8.3-5.3h1.7c.3,0,.5,0,.7,0,0,.7-.3,1.5-.7,2.3l-4.6,8c-1.7,3-5.5,5.4-8.5,5.4h-1.7c-.2,0-.4,0-.6,0,0-.7.3-1.5.8-2.4l4.6-8Z"/></g><g><path class="e" d="m464.4,126.3c-.6-.3-1.1-.8-1.4-1.4-.9-1.6-.7-3.8.7-6l16.7-29.1c2.4-4.2,7.8-7.6,12-7.6h10.6c1.9,0,3.4.7,4.2,2,.9,1.6.7,3.8-.7,6l-16.7,29.1c-2.4,4.2-7.8,7.6-12,7.6h-10.6c-1.1,0-2.1-.2-2.8-.6Zm40.9-42.6c-.6-.4-1.4-.5-2.3-.5h-10.6c-3.9,0-8.9,3.2-11.2,7.2l-16.7,29.1c-1.1,2-1.4,3.8-.7,5.1.6,1,1.8,1.5,3.4,1.5h10.6c3.9,0,8.9-3.2,11.2-7.2l16.7-29.1c1.1-2,1.4-3.8.7-5.1-.2-.4-.6-.8-1-1Z"/><path class="e" d="m468.7,116.2l2.6-4.6h4.3c.5,0,1,.2,1.2.6.3.4.2,1-.2,1.6l-.2.4c-.6,1.1-2,1.9-3.1,1.9h-4.7Zm3-4l-1.9,3.4h3.6c.9,0,2-.8,2.5-1.6l.2-.4c.2-.4.3-.8.2-1-.1-.2-.4-.3-.7-.3h-4Z"/><path class="e" d="m499.1,88.5c-.6-1-1.8-1.6-3.3-1.6h-1.7c-3.2,0-7.3,2.6-9.2,5.8l-4.6,8c-1,1.8-1.2,3.5-.5,4.7.3.4.6.8,1.1,1.1s1.3.5,2.2.5h1.7c3.2,0,7.3-2.6,9.2-5.8l4.6-8c1-1.8,1.2-3.5.5-4.7Zm-1.9-.4c.1,0,.3,0,.4.1.3.2.6.4.7.7.5.9.3,2.3-.5,3.7l-4.6,8c-1.7,2.9-5.4,5.3-8.3,5.3h-1.7c-1.2,0-2-.4-2.4-1.1-.1-.2-.2-.4-.2-.7.2,0,.4,0,.6,0h1.7c3.2,0,7.2-2.6,9-5.7l4.6-8c.5-.8.7-1.7.8-2.4Zm-11.4,5.1c1.7-2.9,5.4-5.3,8.3-5.3h1.7c.3,0,.5,0,.7,0,0,.7-.3,1.5-.7,2.3l-4.6,8c-1.7,3-5.5,5.4-8.5,5.4h-1.7c-.2,0-.4,0-.6,0,0-.7.3-1.5.8-2.4l4.6-8Z"/></g><path class="e" d="m262.9,144h-.7s4.9-8.6,4.9-8.6c.6-1.1,1.8-1.8,3.1-1.8l106.7-1.3c.6,0,1.2.3,1.6.9.3.6.3,1.2,0,1.8l-4.9,8.5h-.7s5-8.8,5-8.8c.2-.4.2-.8,0-1.2-.2-.4-.6-.6-1-.6l-106.7,1.3c-1,0-2,.6-2.5,1.5l-4.8,8.3Z"/><path class="f" d="m158,138.8c-.2-.1-.3-.2-.4-.4-.3-.5-.2-1.1.2-1.7l2.2-3.8c.7-1.1,2.1-2,3.2-2.1h8.2c.6,0,1,.2,1.2.6.3.5.2,1.1-.2,1.7l-2.2,3.8c-.7,1.1-2.1,2-3.2,2.1h-8.2c-.3,0-.6,0-.8-.2Zm13.8-7.3c-.2,0-.3-.1-.5-.1h-8.2c-.9,0-2.2.8-2.7,1.8l-2.2,3.8c-.3.4-.3.9-.2,1.1.2.3.5.3.7.3h8.2s0,.3,0,.3v-.3c.9,0,2.2-.8,2.7-1.7l2.2-3.8c.3-.4.3-.9.2-1.1,0,0-.1-.1-.2-.2Z"/><path class="f" d="m480.7,139.9c-.2-.1-.3-.2-.4-.4-.3-.5-.2-1.1.2-1.7l2.2-3.8c.7-1.1,2.1-2,3.2-2.1h8.2c.6,0,1,.2,1.2.6.3.5.2,1.1-.2,1.7l-2.2,3.8c-.7,1.1-2.1,2-3.2,2.1h-8.2c-.3,0-.6,0-.8-.2Zm13.8-7.3c-.2,0-.4-.1-.5-.1h-8.2c-.9,0-2.2.8-2.7,1.8l-2.2,3.8c-.3.4-.3.9-.2,1.1.1.3.5.3.7.3h8.2c.9,0,2.2-.8,2.7-1.8l2.2-3.8c.3-.4.3-.9.2-1.1,0,0-.1-.1-.2-.2Z"/><g><path class="e" d="m180.8,44.5l-20-34.4c-2.7-4.7-6.6-7.3-10.8-7.3,0,0-32.2.8-93.1,30.9C-4,63.7-2.3,80.2,4.5,93.9c6.8,13.7,18.1,30.6,18.1,30.6,0,0,13.3,15.9,42.5,18,24,1.8,71.3,2.2,72.5,2.2,5,0,10.1-3.8,13.8-10.3l27.8-48.5c7-12.2,7.7-30.8,1.6-41.4Z"/><path class="h" d="m33.9,133.9c-7.9-4.5-11.7-9-11.8-9.1-.2-.2-11.4-17.2-18.2-30.7-2.5-5-4.7-11.1-2.3-18.3,4.3-12.7,21.7-26.3,55-42.7C117,3.3,149.7,2.2,150,2.1c4.4,0,8.5,2.7,11.3,7.6l20,34.4c6.2,10.8,5.5,29.6-1.6,42l-27.8,48.5c-3.9,6.7-9.1,10.6-14.4,10.6-.4,0-48.4-.5-72.5-2.2-13.7-1-24-5.1-31.1-9.1ZM154.9,4.7c-1.5-.9-3.2-1.3-4.9-1.3-.3,0-32.8,1.2-92.9,30.8C24.7,50.2,6.9,63.9,2.8,76.2c-2.3,6.8-.2,12.6,2.2,17.4,6.7,13.5,17.9,30.4,18.1,30.5,0,.1,13.4,15.6,42,17.7,24,1.8,72,2.2,72.4,2.2,4.8,0,9.7-3.7,13.3-10l27.8-48.5c6.9-12.1,7.6-30.4,1.6-40.8l-20-34.4c-1.5-2.6-3.3-4.5-5.4-5.7Z"/></g><path class="e" d="m139.7,146.6v-1.2c5.4-.6,13.3-15,13.4-15.2l25.4-44.3c6.8-11.8,6.4-21.6,6.4-21.7h1.2c0,.4.4,10.2-6.6,22.3l-25.4,44.3c-.3.6-8.3,15.2-14.5,15.8Z"/><path class="f" d="m60.2,55.9l9.5,16.1c5.4,9.1,14.6,15.4,25.1,16.9h0c12.2,1.8,24.6.3,36-4.4l24.6-10.1c6.7-2.8,11.9-8.2,14.5-14.9h0c1.6-4.2,1.2-8.8-1.1-12.7l-16.8-28.7c-3.2-5.5-8.9-9.2-15.3-9.9h0c-7.4-.8-14.8-.2-21.9,2-11.3,3.5-25.3,8.5-41.8,15.9-6.1,2.7-11,7.6-13.6,13.7v.2c-2.4,5.2-2,11.1.8,15.9Z"/><g><path class="g" d="m60.2,55.9l.2.4c9.2-3.1,24.3-10.2,41.4-16,14.8-5,30.8-8.9,44.9-13.2-3.2-5.5-8.9-9.2-15.3-9.9-7.4-.8-14.8-.2-21.9,2-11.3,3.5-25.3,8.5-41.8,15.9-3.6,1.6-6.7,4-9.3,6.9-1.4,4.6-.8,9.7,1.7,13.9Z"/><path class="g" d="m163.6,55.8l-11.8-20.2c-7.9.9-26.5,6.6-46.1,13.4-10.6,3.7-22,8.6-30.3,12.8-3.4,1.7-6.4,3.2-9.1,4.5l3.4,5.7c5.4,9.1,14.6,15.4,25.1,16.9,12.2,1.8,24.6.3,36-4.4l24.6-10.1c3.7-1.5,7-3.9,9.6-6.9,1.2-3.9.7-8.1-1.4-11.7Z"/></g><path class="h" d="m170.4,59.6c1.6-4.4,1.2-9.2-1.1-13.2l-16.8-28.7c-3.3-5.7-9.2-9.5-15.7-10.2-7.6-.8-15-.1-22.2,2-13.1,4-27.2,9.4-41.9,15.9-6.3,2.8-11.2,7.8-13.9,14v.2c-2.4,5.3-2.1,11.5.9,16.4l9.5,16.1c3.2,5.4,7.7,9.8,13,12.9,3.8,2.2,8.1,3.7,12.6,4.4,12.3,1.8,24.8.3,36.3-4.4l24.6-10.2c6.8-2.8,12.2-8.4,14.8-15.3Zm-15.3,14.2l-24.6,10.1s0,0,0,0c-1.9.8-3.8,1.3-5.8,1.7-7.4,1.3-14.9,1.3-22.4,0-10.1-1.7-18.9-8-24.1-16.8l-9.5-16.1c-2.9-4.8-3.2-10.7-.9-15.9v-.2c2.7-6,7.5-10.9,13.4-13.6,1-.4,1.9-.8,2.8-1.3,10.7-4.5,21.1-8.2,30.9-11.2,7.1-2.2,14.5-2.8,22-2,6.1.7,11.4,4.3,14.5,9.6,4.9,8.4,12.8,21.8,16.8,28.7,2.1,3.6,2.6,7.9,1.1,11.8-2.4,6.7-7.6,12.2-14.2,14.9Z"/><path class="h" d="m184,53.9c-.5,6.3-1.8,12.8-21.8,30.9-18.1,16.4-65.3,30.6-94.5,34.7-12.1-.8-32.4-6.4-42.7-20.9-17.9-25.3-10.9-37.6-10.8-37.7l-1-.6c-.3.5-7.6,13,10.9,39,3.7,5.2,8.8,9.4,14.4,12.6,7.8,4.5,16.5,7.1,23.9,8.3-4.1.4-7.7.6-10.6.5-23.3-.8-30.1-10.3-40.3-28.4-9.5-16.8-4.5-24.4-3.7-25.5-9.4,11.3-7.2,19.8-3.4,27.4,6.8,13.7,18.1,30.6,18.1,30.6,0,0,13.3,15.9,42.5,18,24,1.8,71.3,2.2,72.5,2.2,5,0,10.1-3.8,13.8-10.3l27.8-48.5c5.3-9.2,7-22,4.9-32.3Z"/><path class="f" d="m125.8,133.7c-.3-.2-.5-.4-.7-.7-.5-.8-.3-1.9.3-3l7.8-13.6c1.2-2.1,3.8-3.7,5.9-3.7h8.3c1,0,1.7.3,2.1,1,.5.8.3,1.9-.3,3l-7.8,13.6c-1.2,2.1-3.8,3.7-5.9,3.7h-8.3c-.5,0-1,0-1.4-.3Zm22.7-20.2c-.3-.2-.7-.3-1.1-.3h-8.3c-1.8,0-4.3,1.6-5.4,3.5l-7.8,13.6c-.5.9-.7,1.8-.3,2.4.3.5.8.7,1.6.7h8.3c1.8,0,4.3-1.6,5.4-3.5l7.8-13.6c.5-.9.7-1.8.3-2.4-.1-.2-.3-.3-.5-.5Z"/><path class="e" d="m1.9,91.3c-1.2-2.4-1.9-7.1-1.9-7.3h1.1s.8,5,1.9,7.2h-1.1Z"/><path class="f" d="m242.3,106.7l11.7-20.4h12.4s-11.7,20.3-11.7,20.3h-12.4Zm12.4-19.1l-10.3,17.9h9.6s10.3-18,10.3-18h-9.6Z"/><path class="f" d="m421.8,106.3l11.7-20.4h12.4s-11.7,20.3-11.7,20.3h-12.4Zm12.4-19.1l-10.3,17.9h9.6s10.3-18,10.3-18h-9.6Z"/><path class="f" d="m284.7,87.1l-18.2,31.8h53.4c0-.1,18.2-31.9,18.2-31.9h-53.4Zm46,1.1l-14.2,24.8h-45.4c0,.1,14.2-24.7,14.2-24.7h45.4Z"/><path class="f" d="m360.1,86.9l-18.2,31.8h53.4c0-.1,18.2-31.9,18.2-31.9h-53.4Zm45.9,1.1l-14.4,25.1h-45.2c0,.1,14.4-24.9,14.4-24.9h45.2Z"/><g><polygon class="f" points="505.3 40.2 475.2 40.3 460.1 14.2 490.1 14.2 505.3 40.2"/><polygon class="f" points="460.1 14.2 457.6 18.4 472.8 44.5 475.2 40.3 460.1 14.2"/><polygon class="g" points="503.7 42.9 473.6 42.9 458.5 16.9 488.6 16.8 503.7 42.9"/><path class="h" d="m505.6,39.6l-15.1-26h-30.1c0,0-.7,0-.7,0l-.3.6-2.4,4.2,15.1,26,.4.6h.7s30.1,0,30.1,0l2.4-4.2.3-.6-.4-.6Zm-32.9,3.7l-14.4-24.8,1.7-3,14.4,24.8-1.7,3Zm-11.6-28.4h28.7c0,0,14.4,24.7,14.4,24.7h-28.7c0,0-14.4-24.7-14.4-24.7Z"/></g><g><polygon class="f" points="226.3 39.7 196.2 39.8 181 13.7 211.1 13.7 226.3 39.7"/><polygon class="f" points="181 13.7 178.6 17.9 193.8 44 196.2 39.8 181 13.7"/><polygon class="g" points="224.7 42.4 194.6 42.4 179.5 16.4 209.6 16.3 224.7 42.4"/><path class="h" d="m226.6,39.1l-15.1-26h-30.1c0,0-.7,0-.7,0l-.3.6-2.4,4.2,15.1,26,.4.6h.7s30.1,0,30.1,0l2.4-4.2.3-.6-.4-.6Zm-32.9,3.7l-14.4-24.8,1.7-3,14.4,24.8-1.7,3Zm-11.6-28.4h28.7c0,0,14.4,24.7,14.4,24.7h-28.7c0,0-14.4-24.7-14.4-24.7Z"/></g><g><path class="e" d="m92.6,109.7c3.5-1.3,2.6-6.4-1.1-6.5-3.1,0-6.8-.2-11.1-.4-21.4-1.1-30-13.9-30-13.9,0,0-9.3-15.3-15.6-26.8-6.1-11.2,8.5-21.3,9.5-22-6.5,3.5-12.2,6.9-16.9,10.1-8.3,9.1-3.2,20-3.2,20,0,0,9.6,18.3,17,28.1,7.4,9.8,20.6,15.4,35.2,15,5.5-.1,11.3-1.7,16.4-3.6Z"/><path class="g" d="m89.5,112.2c3.5-1.3,2.6-6.4-1.1-6.5-3.1,0-6.8-.2-11.1-.4-21.4-1.1-30-13.9-30-13.9,0,0-9.3-15.3-15.6-26.8-6.1-11.2,8.5-21.3,9.5-22-6.5,3.5-12.2,6.9-17,10.1-8.3,9.1-3.2,20-3.2,20,0,0,9.6,18.3,17,28.1,7.4,9.8,20.6,15.4,35.2,15,5.5-.1,11.3-1.7,16.4-3.6Z"/><path class="h" d="m51.3,108c-4.3-2.4-7.9-5.6-10.7-9.3-7.4-9.7-17-28-17.1-28.2,0-.1-5.2-11.3,3.3-20.7,5-3.3,10.7-6.7,17.1-10.2l.6,1c-.6.4-15.2,10.4-9.3,21.2,6.2,11.4,15.5,26.6,15.6,26.8,0,.1,8.7,12.5,29.5,13.6,4,.2,7.7.3,11.1.4,2.3,0,3.5,1.7,3.8,3.3.3,1.6-.4,3.6-2.5,4.4-6.2,2.3-11.7,3.5-16.6,3.6-9.2.2-17.9-1.9-24.9-6Zm-12.2-64.3c-4.2,2.4-8.1,4.8-11.5,7-7.8,8.6-3.1,19.1-3,19.2,0,.2,9.6,18.3,17,28,7.3,9.6,20.3,15.1,34.7,14.8,4.7-.1,10.1-1.3,16.2-3.6h0c1.6-.6,1.9-2,1.7-3-.2-1-1-2.2-2.6-2.3-3.4,0-7.2-.2-11.2-.4-21.5-1.1-30.4-14-30.5-14.1-.1-.2-9.4-15.4-15.6-26.9-4.1-7.5.7-14.5,4.9-18.7Z"/></g><path class="h" d="m87.4,106.3c-.3-1.1-1.2-1.8-2.4-2.3h0c-1.4-.5-3.1-.5-4.8,0-2.3.7-4,2.2-4.7,3.7-.3.8-.4,1.5-.2,2.3.2.8.8,1.4,1.6,1.9s.8.4,1.2.5c1.4.4,3,.3,4.6-.2,3.4-1.1,5.6-3.7,4.8-6Zm-3.6,4.1c-.8-.3-1.4-.8-1.6-1.4-.4-1.2.6-2.7,2.5-3.7.2,0,.4.1.5.2.5.3.9.7,1,1.2.4,1.2-.7,2.7-2.4,3.7Z"/><path class="h" d="m73,104.7c-.3-1.1-1.2-1.8-2.4-2.3h0c-1.4-.5-3.1-.5-4.8,0-2.3.7-4,2.2-4.7,3.7-.3.8-.4,1.5-.2,2.3.2.8.8,1.4,1.6,1.9s.8.4,1.2.5c1.4.4,3,.3,4.6-.2,3.4-1.1,5.6-3.7,4.8-6Zm-3.6,4.1c-.8-.3-1.4-.8-1.6-1.4-.4-1.2.6-2.7,2.5-3.7.2,0,.4.1.5.2.5.3.9.7,1,1.2.4,1.2-.7,2.7-2.4,3.7Z"/><path class="h" d="m33.2,54.9c.3-1.9,1.1-3.8,2.1-5.4-1,.5-1.9.7-2.5.5-.5-.2-.8-.7-.8-1.3,1.3-1.2,2.9-1.8,3.9-1.4.3.1.5.3.6.6.2-.3.5-.6.7-.9-.2-.2-.4-.4-.7-.5-.8-.3-1.7-.3-2.7,0-.9.5-1.7,1-2.5,1.5-.4.4-.9.9-1.3,1.4-.8,1.1-1.3,2.3-1.3,3.4,0,.4,0,.7.1,1,.2.6.6,1.1,1.3,1.4.6.3,1.3.3,2.1.1.4,0,.7-.2,1.1-.3Z"/></g></g></g></g></svg>